<svg xmlns="http://www.w3.org/2000/svg" width="81.179" height="48.853" viewBox="0 0 81.179 48.853">
  <g id="Group_3259" data-name="Group 3259" opacity="1">
    <g id="Group_1378" data-name="Group 1378">
      <g id="Group_1376" data-name="Group 1376">
        <g id="Group_1374" data-name="Group 1374" transform="translate(24.981)">
          <g id="Group_1373" data-name="Group 1373">
            <g id="Group_1367" data-name="Group 1367">
              <path id="Path_769" data-name="Path 769" d="M2104.7,105.761a6.186,6.186,0,0,0,8.96-.231,6.989,6.989,0,0,0,1.918-4.954,7.1,7.1,0,0,0-1.908-4.968,6,6,0,0,0-4.557-2.067,6.1,6.1,0,0,0-4.6,2.048,7.416,7.416,0,0,0,.19,10.173Zm4.389-9.568a3.569,3.569,0,0,1,2.794,1.256,4.8,4.8,0,0,1-.013,6.219,3.7,3.7,0,0,1-5.545.016,4.76,4.76,0,0,1-.037-6.235A3.6,3.6,0,0,1,2109.087,96.194Z" transform="translate(-2090.373 -93.533)" fill="#231f20"/>
              <path id="Path_770" data-name="Path 770" d="M2119.482,107.427h3.264l2.873-4.534,2.792,4.534h3.227l-4.35-7.061,4.174-6.5h-3.292l-2.5,3.966-2.382-3.966h-3.261l3.98,6.486Z" transform="translate(-2094.943 -93.622)" fill="#231f20"/>
              <path id="Path_771" data-name="Path 771" d="M2154.6,104.922a1.423,1.423,0,0,1-1.281-.656,3.029,3.029,0,0,1-.346-1.339l-.05-.466-2.561.614.053.392a5.111,5.111,0,0,0,1.342,3.009,3.8,3.8,0,0,0,2.773,1.09,3.912,3.912,0,0,0,2.961-1.274,4.518,4.518,0,0,0,1.191-3.2,4.094,4.094,0,0,0-.744-2.475,5.4,5.4,0,0,0-2.237-1.656l-1.166-.517c-.684-.3-1.03-.678-1.03-1.105a1.014,1.014,0,0,1,.349-.8,1.541,1.541,0,0,1,1.744-.144,2.207,2.207,0,0,1,.62.833l.2.374,2.1-1.356-.192-.364a3.885,3.885,0,0,0-6.255-1.276,3.619,3.619,0,0,0-1.139,2.715,3.9,3.9,0,0,0,2.639,3.62l1.121.508a4.36,4.36,0,0,1,.7.4,1.967,1.967,0,0,1,.433.4,1.327,1.327,0,0,1,.224.428,1.839,1.839,0,0,1,.075.544,1.746,1.746,0,0,1-.433,1.227A1.4,1.4,0,0,1,2154.6,104.922Z" transform="translate(-2103.296 -93.53)" fill="#231f20"/>
              <path id="Path_772" data-name="Path 772" d="M2138.1,107.427h7.228v-2.652h-4.684v-3.4h4.549V98.725h-4.549v-2.2h4.684V93.869H2138.1v4.856h-1.5v2.652h1.5Z" transform="translate(-2099.572 -93.622)" fill="#231f20"/>
              <path id="Path_773" data-name="Path 773" d="M2087.353,107.563h5.779a7.421,7.421,0,0,0,2.107-.258,3.534,3.534,0,0,0,1.465-.983,3.985,3.985,0,0,0,1.086-2.823,4.105,4.105,0,0,0-.611-2.23,3.309,3.309,0,0,0-1.129-1.118,3.566,3.566,0,0,0,.687-2.166,4.386,4.386,0,0,0-.327-1.65,3.874,3.874,0,0,0-.879-1.358,3.093,3.093,0,0,0-1.348-.761c-.573-.163-4.3-.211-4.687-.212h-2.146v5.261h-1.507l0,2.653h1.5Zm5.961-2.654H2089.9v-2.993h3.222a2.391,2.391,0,0,1,1.713.44,1.436,1.436,0,0,1,.439,1.069,1.394,1.394,0,0,1-.451,1.073A2.225,2.225,0,0,1,2093.313,104.909Zm.634-5.8c-.128.135-.378.16-.793.16H2089.9V96.615h2.948a1.517,1.517,0,0,1,1.1.353,1.413,1.413,0,0,1,.342,1.05A1.494,1.494,0,0,1,2093.947,99.105Z" transform="translate(-2085.846 -93.658)" fill="#231f20"/>
            </g>
            <g id="Group_1368" data-name="Group 1368" transform="translate(0 34.657)">
              <path id="Path_774" data-name="Path 774" d="M2109.108,141.049a6.1,6.1,0,0,0-4.6,2.046,7.415,7.415,0,0,0,.191,10.171,6.183,6.183,0,0,0,8.958-.228,6.993,6.993,0,0,0,1.919-4.956,7.093,7.093,0,0,0-1.909-4.967A6,6,0,0,0,2109.108,141.049Zm-.068,11.384a3.623,3.623,0,0,1-2.719-1.24,4.763,4.763,0,0,1-.038-6.237,3.6,3.6,0,0,1,2.8-1.256,3.565,3.565,0,0,1,2.793,1.256,4.8,4.8,0,0,1-.013,6.219A3.655,3.655,0,0,1,2109.041,152.433Z" transform="translate(-2090.373 -141.04)" fill="#231f20"/>
              <path id="Path_775" data-name="Path 775" d="M2132.938,141.374l-2.8,7.781-2.882-7.356,0,.012,0-.012-.048.137-2.953,7.211-2.634-7.772H2119L2124.135,155l.112.323,0-.014.005.014,2.948-7.792,2.825,7.784.013-.035.012.035.3-.825,5.2-13.117Z" transform="translate(-2094.814 -141.128)" fill="#231f20"/>
              <path id="Path_776" data-name="Path 776" d="M2145.451,141.374h-2.545v13.56h5.979v-2.654h-3.434Z" transform="translate(-2101.279 -141.128)" fill="#231f20"/>
              <path id="Path_777" data-name="Path 777" d="M2156.813,146.468l-1.165-.52c-.682-.3-1.03-.676-1.03-1.1a1.013,1.013,0,0,1,.349-.8,1.339,1.339,0,0,1,.965-.352,1.323,1.323,0,0,1,.779.2,2.218,2.218,0,0,1,.623.835l.2.373,2.1-1.355-.193-.365a3.886,3.886,0,0,0-6.258-1.274,3.616,3.616,0,0,0-1.137,2.713,3.887,3.887,0,0,0,2.638,3.617l1.123.51a4.627,4.627,0,0,1,.7.4,2.052,2.052,0,0,1,.435.4,1.355,1.355,0,0,1,.222.43,1.847,1.847,0,0,1,.075.544,1.738,1.738,0,0,1-.432,1.224,1.4,1.4,0,0,1-1.092.475,1.417,1.417,0,0,1-1.279-.658,3.047,3.047,0,0,1-.346-1.338l-.05-.465-2.563.613.054.392a5.115,5.115,0,0,0,1.34,3.009,3.8,3.8,0,0,0,2.776,1.09,3.916,3.916,0,0,0,2.959-1.272,4.51,4.51,0,0,0,1.191-3.2,4.115,4.115,0,0,0-.742-2.475A5.407,5.407,0,0,0,2156.813,146.468Z" transform="translate(-2103.597 -141.036)" fill="#231f20"/>
              <path id="Path_778" data-name="Path 778" d="M2096.048,147.656a3.558,3.558,0,0,0,.688-2.166,4.379,4.379,0,0,0-.328-1.649,3.894,3.894,0,0,0-.877-1.359,3.111,3.111,0,0,0-1.349-.759c-.573-.163-4.3-.212-4.687-.212h-2.144v5.261h-1.505v2.652h1.505v5.648h5.781a7.444,7.444,0,0,0,2.105-.259,3.537,3.537,0,0,0,1.465-.983,3.981,3.981,0,0,0,1.087-2.821,4.082,4.082,0,0,0-.611-2.23A3.3,3.3,0,0,0,2096.048,147.656Zm-2.736,4.762h-3.418v-3h3.222a2.376,2.376,0,0,1,1.712.442,1.427,1.427,0,0,1,.438,1.067,1.4,1.4,0,0,1-.45,1.075A2.221,2.221,0,0,1,2093.313,152.418Zm.635-5.806c-.13.136-.381.162-.8.162l-3.254,0v-2.649h2.949a1.51,1.51,0,0,1,1.1.353,1.413,1.413,0,0,1,.341,1.049A1.506,1.506,0,0,1,2093.947,146.612Z" transform="translate(-2085.846 -141.164)" fill="#231f20"/>
            </g>
            <g id="Group_1371" data-name="Group 1371" transform="translate(37.016 19.287)">
              <g id="Group_1370" data-name="Group 1370">
                <g id="Group_1369" data-name="Group 1369">
                  <rect id="Rectangle_287" data-name="Rectangle 287" width="18.191" height="2.653" fill="#231f20"/>
                  <rect id="Rectangle_288" data-name="Rectangle 288" width="18.191" height="2.654" transform="translate(0 7.463)" fill="#231f20"/>
                </g>
              </g>
            </g>
            <g id="Group_1372" data-name="Group 1372" transform="translate(23.297 18.314)">
              <path id="Path_779" data-name="Path 779" d="M2117.781,118.956h2.69v1.072a4.389,4.389,0,0,1,3.166-1.393,4,4,0,0,1,3.155,1.274,5.222,5.222,0,0,1,.975,3.536v7.106h-2.69v-6.476a4.253,4.253,0,0,0-.476-2.369,1.922,1.922,0,0,0-1.691-.666,2.067,2.067,0,0,0-1.893.881,6.062,6.062,0,0,0-.547,3.036v5.595h-2.69Z" transform="translate(-2117.781 -118.634)" fill="#231f20"/>
            </g>
          </g>
        </g>
        <g id="Group_1375" data-name="Group 1375" transform="translate(0 0.241)">
          <path id="Path_780" data-name="Path 780" d="M2064.115,108.994c1.216,0,1.216,0,2.43,0a.84.84,0,0,0,.807-.867c-.007-1.323-.012-1.323-.014-2.645a.817.817,0,0,0-.793-.855c-1.214,0-1.214-.034-2.43-.034a.863.863,0,0,0-.809.889c0,1.323,0,1.323,0,2.645A.846.846,0,0,0,2064.115,108.994Z" transform="translate(-2054.767 -96.763)" fill="#231f20"/>
          <path id="Path_781" data-name="Path 781" d="M2072.53,114.409c0-1.39.078-1.39.078-2.782s-.193-1.391-.194-2.782.254-1.391.254-2.783-.037-1.391-.037-2.783-.145-1.391-.145-2.783,0-2.23,0-3.623a2.885,2.885,0,0,0-.761-1.987,2.61,2.61,0,0,0-1.826-.988c-1.295,0-1.295-.037-2.588-.037s-1.293.073-2.587.073-1.295.082-2.589.082-1.294-.145-2.588-.145-1.294.228-2.588.228-1.295-.064-2.588-.064a2.483,2.483,0,0,0-1.849.827,3.085,3.085,0,0,0-.92,2.012c0,1.392.071,2.232.071,3.622s.01,1.391.01,2.782.029,1.39.029,2.782.107,1.39.107,2.78-.012,1.393-.012,2.782-.036,1.392-.036,2.782-.117,1.392-.117,2.783.115,1.39.115,2.782-.163,1.39-.163,2.782.218,1.39.218,2.782-.212,1.391-.212,2.782.132,1.391.132,2.782-.142,1.391-.142,2.785.153,1.39.16,2.782-.013,1.391-.013,2.784a2.853,2.853,0,0,0,.822,1.961,2.36,2.36,0,0,0,1.8.8c1.293,0,1.293.1,2.588.1s1.293.051,2.587.051,1.293-.119,2.588-.119,1.293.13,2.587.13,1.3.018,2.59.018,1.293.028,2.588.028a2.684,2.684,0,0,0,1.919-.885,3.048,3.048,0,0,0,.646-2.089c0-1.393-.05-1.393-.05-2.782s.187-1.391.187-2.782-.187-1.392-.187-2.782.2-1.39.2-2.781-.006-1.392-.006-2.782-.015-1.391-.015-2.782,0-1.391,0-2.783.05-1.39.05-2.782S2072.532,115.8,2072.53,114.409ZM2056.238,103.9c0-1.394,0-1.394,0-2.789s-.016-1.4-.016-2.791a.856.856,0,0,1,.811-.883c1.282,0,1.282.011,2.563.011s1.282.012,2.564.01,1.284-.042,2.566-.042,1.283-.005,2.566-.005a.853.853,0,0,1,.773.909c0,1.4.046,1.4.046,2.789s-.009,1.4-.009,2.791,0,1.393,0,2.788-.032,1.4-.032,2.793a.845.845,0,0,1-.781.894c-1.282,0-1.282-.048-2.566-.048s-1.282.066-2.564.066-1.282-.035-2.563-.03-1.284,0-2.566,0a.868.868,0,0,1-.823-.885c0-1.4.032-1.4.032-2.79S2056.238,105.3,2056.238,103.9Zm12.771,26.534a7.853,7.853,0,0,1-.481,2.818,7.458,7.458,0,0,1-1.464,2.4,6.826,6.826,0,0,1-1.958,1.5c-.139.241.264-.069.525-.069a.371.371,0,0,1,.291.338c0,.668-.082.668-.082,1.337,0,.147-.074.328-.209.328-3.361,0-3.361-.071-6.72-.071a.236.236,0,0,1-.23-.257c0-.668-.042-.668-.042-1.337a.3.3,0,0,1,.272-.29c.3,0,.742.311.611.017a6.752,6.752,0,0,1-2.1-1.439,7.619,7.619,0,0,1-1.44-2.442,7.973,7.973,0,0,1-.5-2.831,5.222,5.222,0,0,0,.065-.676c0-.147.08-.2.213-.2,6.522,0,6.522-.068,13.043-.068a.3.3,0,0,1,.295.267A3.179,3.179,0,0,1,2069.008,130.434Zm-5.694-9.457c1.714-1.614-.651-1.827-.657-1.827a2.032,2.032,0,0,1,1.833-.188c.764.3,2.37,1.671,1.739,2.912-.432.846-1.069,1.149-3.048,1.825a4.382,4.382,0,0,0-1.547.864,1.577,1.577,0,0,0-.28,2.06,11.067,11.067,0,0,1-1.633.117,1.739,1.739,0,0,1-1.123-.347,1.787,1.787,0,0,1-.359-2.423,4.583,4.583,0,0,1,1.905-1.3,1.535,1.535,0,0,0-.637,1.694C2059.4,122.981,2062.766,121.776,2063.315,120.978Zm2.439,5.048c.36.493-.94,1.27-1.552.983-1.953-.918.326-3.084,2.579-3.32C2065.989,124.243,2065.276,125.369,2065.754,126.025Zm2.574-9.966c-1.229,0-1.229-.021-2.458-.021s-1.229.042-2.458.042-1.23-.012-2.46-.012-1.229-.051-2.457-.051-1.229.042-2.458.042a.791.791,0,0,1-.821-.766c0-.754-.047-.752-.061-1.507a.873.873,0,0,1,.882-.8c1.23,0,1.23.007,2.459.007s1.23.055,2.459.055,1.228-.027,2.459-.027,1.228-.028,2.458-.028,1.229.023,2.456.023a.8.8,0,0,1,.826.766c0,.754.021.754.021,1.507A.815.815,0,0,1,2068.328,116.059Z" transform="translate(-2051.603 -93.861)" fill="#231f20"/>
          <path id="Path_782" data-name="Path 782" d="M2062.438,135.672a.913.913,0,0,0,.031.177C2062.458,135.788,2062.448,135.729,2062.438,135.672Z" transform="translate(-2054.534 -105.17)" fill="#231f20"/>
        </g>
      </g>
      <g id="Group_1377" data-name="Group 1377" transform="translate(26.485 19.287)">
        <rect id="Rectangle_289" data-name="Rectangle 289" width="18.191" height="2.653" fill="#231f20"/>
        <rect id="Rectangle_290" data-name="Rectangle 290" width="18.191" height="2.654" transform="translate(0 7.463)" fill="#231f20"/>
      </g>
    </g>
  </g>
</svg>
