<svg xmlns="http://www.w3.org/2000/svg" width="96.705" height="56.654" viewBox="0 0 96.705 56.654">
  <g id="Group_3276" data-name="Group 3276" opacity="1">
    <path id="Path_25411" data-name="Path 25411" d="M566.272,1002.142a.666.666,0,0,0,.668-.669v-4.246a.665.665,0,0,0-.668-.668.656.656,0,0,0-.477.195.64.64,0,0,0-.2.474v4.246a.639.639,0,0,0,.2.474A.654.654,0,0,0,566.272,1002.142Z" transform="translate(-530.439 -988.443)"/>
    <path id="Path_25412" data-name="Path 25412" d="M574.906,999.064a.655.655,0,0,0,.2-.477v-1.133a.594.594,0,0,0-.668-.675h-.706v2.482h.706A.64.64,0,0,0,574.906,999.064Z" transform="translate(-533.802 -988.534)"/>
    <path id="Path_25413" data-name="Path 25413" d="M607.587,997.772l-.433,3.058h.867Z" transform="translate(-547.631 -988.945)"/>
    <path id="Path_25414" data-name="Path 25414" d="M598.436,1017.647l.053.053a2.3,2.3,0,0,0,1.659.745h.07a1.923,1.923,0,0,0,1.5-.645c.6-.692.756-1.865.492-3.682l-.1-.692c0-.006-.006-.012-.006-.018l-2.357-2.333c-.006,0-.006-.006-.006-.012a14.135,14.135,0,0,0-2.439-4.339l-2.445-2.439a4.326,4.326,0,0,0-3.271-1.413c-1.935,0-2.978,1.542-3.746,3.524a.026.026,0,0,1-.047.012l-1.993-1.993a4.9,4.9,0,0,0-3.436-1.378,4.142,4.142,0,0,0-2.2.674.032.032,0,0,1-.047-.018,8.939,8.939,0,0,0-.815-3.26,4.881,4.881,0,0,0-.967-1.4l-2.439-2.439a4.647,4.647,0,0,0-2.439-1.384v-3.295l-.3-.3-2.075-2.075-.5-.5-.3-.3h-2.621v.833l-.534-.534-.3-.3h-2.9l-.147.85-.047-.047-.3-.3h-.012l-.194-.2-.3-.3H562.7v-.627h.375V985.9l-.3-.3-2.58-2.58-.3-.3h-3.6v.006H550.22v2.222l.311.3.193.182.3.3v3.113l-.111-.106h-2.627v.727a2.827,2.827,0,0,0-2.058-.727H543.36v.581a2.883,2.883,0,0,0-4.743,2.2v2.556a7.587,7.587,0,0,0-4.362-1.759l-2.533-.287c-.023-.006-.041.029-.023.047l1.964,1.935a4.212,4.212,0,0,1,1.237,2.527,11.364,11.364,0,0,1-.041,2.468.032.032,0,0,1-.053.018l-2.609-2.609a6.009,6.009,0,0,0-4.315-1.759c-.733,0-5.711.193-11.62,5.03l-.528-4.057-.58-4.485-.58,4.485-.586,4.52-3.207.569-3.266.575,3.266.581,2.632.463a39.677,39.677,0,0,0-4.239,5.312c-3.969,5.881-4.667,13.2-1.771,18.644a13.108,13.108,0,0,0,2.146,2.967l2.439,2.439a13.315,13.315,0,0,0,9.832,3.981c4.966,0,10.846-2.122,17.067-4.362,7-2.521,14.241-5.13,21.06-5.13a12.689,12.689,0,0,1,5.628,1.225c.006,0,.012.006.018.012a5.742,5.742,0,0,1,.135,3.758l-.252.968c0,.012,0,.023.012.029l2.468,2.468c.006.006.012.012.018.012l1.008.029c.152.006.3.006.451.006a8.381,8.381,0,0,0,5.505-1.694,5.377,5.377,0,0,0,1.876-4.163,6.185,6.185,0,0,0-.082-.979.028.028,0,0,1,.047-.023,12.722,12.722,0,0,0,1.747,1.231c.006,0,.012.006.012.018a10.87,10.87,0,0,0,2.732,4.943l2.439,2.439a9.216,9.216,0,0,0,6.567,2.9c4.849,0,9.879-3.823,9.955-11.38a24.6,24.6,0,0,0-1.888-10.436l.047.047Zm-29.755-25.6v-2.284h1.17v6.592h2.02v1.167h-3.189v0h0Zm-4.907,3.679.675-3.985.206-1.2.133-.777H566.4l1.3,7.757h0v0h-1.231l-.275-1.786h-1.219l-.1.64-.18,1.146H563.47v0h0Zm-4-5.967h0l1.551,5.2v-5.205h1.17v7.763h0v0h-1.255v0h0L560.9,996.5l-1.279-3.945v4.965h0v0h-1.167v0h0v-7.763h1.313Zm-2.457-6.021h2.153v.762h-1.4v1.366h1.02v.762h-1.02V988h1.4v.762h-2.153Zm-1.073,13.781v-7.757h1.17v7.757h0v0h-1.167v0Zm-2.027-13.168v-.609h.757v2.128h.909v-2.128h.759v5.013h-.759v-2.122h-.909v2.122h-.757Zm-.2,8.067v-.91a.664.664,0,0,0-.048-.253.718.718,0,0,0-.076-.115.68.68,0,0,0-.074-.108.655.655,0,0,0-.091-.062.69.69,0,0,0-.162-.093.663.663,0,0,0-.889.63v4.251a.642.642,0,0,0,.193.469.635.635,0,0,0,.168.117.617.617,0,0,0,.614,0,.66.66,0,0,0,.168-.114.685.685,0,0,0,.144-.206.647.647,0,0,0,.053-.263v-1.524h-.65V993.06h0v0h1.864v2.714a1.784,1.784,0,0,1-.545,1.313,1.889,1.889,0,0,1-2.017.4l-.006,0-.006,0a1.776,1.776,0,0,1-.592-.4v0h0c-.046-.047-.081-.1-.122-.148s-.081-.09-.114-.138c-.019-.028-.031-.06-.049-.089a1.78,1.78,0,0,1-.257-.93V991.54a1.945,1.945,0,0,1,.106-.621,1.88,1.88,0,0,1,.176-.363v-.006a2.231,2.231,0,0,1,.264-.328h0l0,0a1.951,1.951,0,0,1,.251-.208c.032-.022.064-.042.1-.061.012-.008.024-.012.036-.019.047-.028.094-.056.141-.08s.082-.035.129-.053c.017-.007.036-.009.055-.015.043-.014.087-.028.131-.039s.071-.023.108-.03a1.974,1.974,0,0,1,.362-.033,1.779,1.779,0,0,1,1.028.306,1.937,1.937,0,0,1,.286.24,1.8,1.8,0,0,1,.539,1.313v.885h-1.214v0Zm-2.767-8.675h2.36v.76h-.8v4.254h-.758v-4.253h-.8Zm-1.932,6.022h0v0h1.17v0h0v7.757h-1.173Zm-4.925,2.02v-2.023h1.844a2.19,2.19,0,0,1,1,.212,1.529,1.529,0,0,1,.177.091l.005,0a1.29,1.29,0,0,1,.254.228h0l0,0h0a1.961,1.961,0,0,1,.4,1.312v1.127a1.812,1.812,0,0,1-.626,1.393l.867,3.386h0v0h-1.266l-.709-2.924h-.778v2.922h0v0h-1.167v0h0Zm-.31,9.43a2.822,2.822,0,0,0,1.87-.686l.088.088h.006l.194.205.3.3h2.621v-.041l.035.041h4.9v-.586a2.9,2.9,0,0,0,3.723.006l.07.07h.012l.193.2.3.311H562.6l.281.334a6.641,6.641,0,0,1,1.384,4.2c-.006.029-.035.041-.053.023l-1.29-1.29a2.932,2.932,0,0,0-2.093-.768,5.025,5.025,0,0,0-3.9,2.181c-.012.012-.029.018-.041.006l-.317-.317a2.467,2.467,0,0,0-1.747-.721h-.012a3.172,3.172,0,0,0-2.58,1.442.029.029,0,0,1-.041.006l-1.964-1.964a2.889,2.889,0,0,0-2.287-.85,2.257,2.257,0,0,0-1.712.774,1.577,1.577,0,0,0-.317,1.313,10.415,10.415,0,0,1,.064,2.07.032.032,0,0,1-.053.018l-1.876-1.876a2.263,2.263,0,0,0-.938-.563c-.012-.006-.023-.018-.018-.029a15.879,15.879,0,0,0,.105-4.04A2.9,2.9,0,0,0,544.075,1001.219Zm-4.432-9.7a1.919,1.919,0,0,1,.135-.715,2.3,2.3,0,0,1,.17-.311,2.159,2.159,0,0,1,.24-.287c.047-.047.094-.076.141-.117a1.99,1.99,0,0,1,.261-.183,1.76,1.76,0,0,1,.9-.24,1.783,1.783,0,0,1,1.315.545h0a2,2,0,0,1,.237.287,1.769,1.769,0,0,1,.307,1.023v4.239a1.784,1.784,0,0,1-.545,1.313,1.754,1.754,0,0,1-.548.373,1.919,1.919,0,0,1-.766.169,1.778,1.778,0,0,1-1.313-.545,1.851,1.851,0,0,1-.389-.575c0-.009-.01-.016-.014-.025-.012-.029-.016-.061-.027-.09a1.857,1.857,0,0,1-.108-.62Zm-28.762,9.776,3.63-.642.642-4.949.575,4.431.067.518.493.087,3.137.555-3.63.642-.642,4.949-.59-4.553-.052-.4-.607-.107Zm55.637,30.087c1.613-6.3-4.222-8.5-9.062-8.5-13.122,0-27.848,9.487-38.126,9.487-12.2,0-16.576-13.748-9.482-24.267a39.111,39.111,0,0,1,4.192-5.234l.531,4.093.582,4.483.582-4.483.586-4.522,3.206-.568,3.265-.577-3.265-.578-2.649-.468c4.7-3.817,8.927-4.774,11.007-4.774,4.951,0,7.515,6.214,4.553,12.383-1.812,3.373-3.315,1.953-3.315,1.953s-.9-.8-1.5-1.331c-.6-.477-.6-1.276.1-2.325s2.006-2.613,2.006-3.994-.779-1.765-1.243-1.765c-3.63,0-8.818,8.439-8.818,8.439-7.073,10.918-4.951,19.884.442,19.884,8.709,0,24.423-10.874,42.17-10.874C574.563,1017.848,577.922,1031.74,566.518,1031.385Zm-36.76-7.869a2.172,2.172,0,0,0,.229.235l1.19,1.2c-4.391,1.665-8.2,2.955-11.075,2.955a3.554,3.554,0,0,1-1.008-.141.019.019,0,0,1-.018-.018c-1.788-4.251.534-10.987,3.764-15.971a36.089,36.089,0,0,1,3.547-4.8.03.03,0,0,1,.053.023,1.981,1.981,0,0,0,.5,1.976l4.239,4.028a.026.026,0,0,1,.006.029c-.991,3.6-1.73,6.561-1.988,8.056A2.853,2.853,0,0,0,529.758,1023.516Zm9.779-1.782a13.074,13.074,0,0,1,.387-3.183,4.206,4.206,0,0,0,.487.92,3.433,3.433,0,0,0,.428.487l.967.973a.033.033,0,0,1-.006.053c-.75.252-1.495.516-2.222.78A.182.182,0,0,0,539.537,1021.734Zm38.32,4.11c0,.169.009.334.015.5a2.149,2.149,0,0,1-1.207-.345c-2.921-1.568-7.1-6.155-8.737-13.323-1.224-.191-1.835,2.1-1.146,4.5-1.091.783-3.794.269-3.423-4.058-1.108,1.842-2.562,4.158-5.23,4.158a2.492,2.492,0,0,1-1.9-.732c-.741.607-1.834,1.838-3.215,1.575-1.812-.466-1.415-3.374-.685-6.9,0,0-2.751,7.623-4.587,7.623a1.68,1.68,0,0,1-1.583-1.229c-.629.838-1.272,2.427-2.98,2.427-3.215,0-3.514-4.594-2.187-8.621.4-1.2,1.558-3.994.53-3.994s-1.757,1.564-3.315,4.472a14.879,14.879,0,0,0-1.974,7.375v0c.007.154.011.305.008.45a4.026,4.026,0,0,1-3.935,4.039c-1.313,0-2.608-.755-2.3-2.53s1.326-5.77,2.7-10.541c2.586-8.522,4.641-14.78,1.459-17.554a6.372,6.372,0,0,1,4.457,2.124,5.213,5.213,0,0,1,.544.841,6.261,6.261,0,0,1,.43,1.061,8,8,0,0,1,.24,1.015c.476,2.8-.144,7.109-2.707,13.75,1.688-2.493,2.723-4.014,3.4-4.986a2.093,2.093,0,0,1,2.077-1.065c1.559.189,1.868,2.352,1.218,4.97-.35,1.411-1.66,7.1.108,7.1a3.085,3.085,0,0,0,2.014-1.047,14.5,14.5,0,0,1,.019-4.712c.239-1.759,1.16-3.829.763-6.824-.166-.732.646-1.132,1.218-1.132a1.9,1.9,0,0,1,2.164,2.163c.2,3.828-2.022,7.922-1.658,9.521,3.315-3.8,3.017-10.22,6.391-10.319.671,0,1.4.433,1.4,1.1-1.591,1.431-2.254,4.493-2.254,6.025,0,1.467,0,4.151,1.778,3.148a7.533,7.533,0,0,1-.435-3.248c0-2.7,2.039-8.172,5.5-8.172,2.171,0,2.392,2.158,2.392,2.957,0,2.219-1.326,4.949-2.851,3.706,1.149-1.243,1.614-3.662.464-3.662s-2.917,2.242-2.917,5.06,1.127,3.351,1.768,3.351,2.1-.621,4.752-7.146a7.745,7.745,0,0,0-.786-7.582c-.047-.062-.093-.126-.142-.185a4.94,4.94,0,0,1,.376-.328,4.154,4.154,0,0,1,.816-.513,3.56,3.56,0,0,1,.368-.147,3.444,3.444,0,0,1,.683-.16,2.938,2.938,0,0,1,1.532.19,1.621,1.621,0,0,1,.182.093,1.744,1.744,0,0,1,.288.217,1.766,1.766,0,0,1,.42.624c.481,1.156.471,3.755-1.57,10.165,1.105-2.53,4.531-4.305,4.531-7.124a1.963,1.963,0,0,0-.95-1.731c.663-.577,1.989-.222,2.277,1.22.281,1.415-.135,3.5-3.685,7.531.878,1.76,2.572,5.447,4.693,7.768-.6-1.09-.827-3.826-.318-10.706.134-2.579.3-4.959.284-6.916,0-.177-.007-.344-.012-.513s-.012-.346-.021-.513a8.894,8.894,0,0,0-.464-2.659,2.848,2.848,0,0,0-.51-.875,1.847,1.847,0,0,0-.432-.374,1.744,1.744,0,0,1,.432-.162,1.952,1.952,0,0,1,.513-.055,2.436,2.436,0,0,1,.513.067,4.183,4.183,0,0,1,2.609,2.236c.707,1.553.972,3.062.707,7.723s-.84,11.052.751,10.3a2.406,2.406,0,0,0,.614-.488,1.34,1.34,0,0,1,.729.882c-.995,1.365-2.315,2.78-3.84,2.78a2.222,2.222,0,0,1-.993-.148c1.53,1.435,3.383,2.061,5.236.762A10.407,10.407,0,0,0,577.857,1025.844Zm19.828-10.7c-3.184-.1-2.219-9.188-4.706-9.188-1.392,0-.953,1.819-.773,2.5,1.1,4.561,4.463,10.048,4.73,16.92.291,7.515-4.995,10.7-9.15,10.7s-8.841-3.682-8.841-10.3,3.537-8.362,5.658-8.362,4.97,1.659,4.95,5.922c-.021,4.724-4.994-2.53-6.4,3.817-.3,1.369,0,6.122,3.574,6.122,1.64,0,7.115-1.819,5.613-9.939-.932-3.736-3.411-10.438-3.9-13.516-.554,1.847-1.539,7.091-6.236,7.091-3.35,0-4.677-3.3-4.677-6.36s2.19-6.69,4.839-6.69a4.67,4.67,0,0,1,4.445,4.859c0,2.395-1.393,5.26-4.677,5.26a3.842,3.842,0,0,1-2.381-.956,3.306,3.306,0,0,0,3.191,3.053c5.458,0,4.067-12.384,8.641-12.384,4.771,0,4.538,8.056,7.327,8.056C599.212,1013.807,598.979,1015.173,597.685,1015.14Zm-7.129,5.152-1.718-1.718a.028.028,0,0,1,0-.041,7.194,7.194,0,0,0,.885-1.061c.041.117.076.235.111.352.27.839.528,1.659.768,2.439C590.615,1020.292,590.574,1020.309,590.557,1020.292Zm.475,8.056a2,2,0,0,0,.451-.047,6.07,6.07,0,0,1-1.143,2.234,5.218,5.218,0,0,1-3.729,1.917l-.029-.029a6.644,6.644,0,0,1-.147-2.609c.475-2.122,1.255-2.122,1.589-2.122a5.15,5.15,0,0,1,1.472.328A5.2,5.2,0,0,0,591.032,1028.347Z" transform="translate(-505.63 -982.716)"/>
    <path id="Path_25415" data-name="Path 25415" d="M635.941,1028.5c.774-1.076.807-3.65-.762-3.65s-3.4,2.552-3.758,4.715C634.007,1031.4,635.278,1029.421,635.941,1028.5Z" transform="translate(-557.671 -1000.146)"/>
  </g>
</svg>
