<svg xmlns="http://www.w3.org/2000/svg" width="74.694" height="74.848" viewBox="0 0 74.694 74.848">
  <g id="Group_3268" data-name="Group 3268" opacity="1">
    <g id="Group_3266" data-name="Group 3266" transform="translate(0 56.896)">
      <path id="Path_25385" data-name="Path 25385" d="M212.608,457.4q-.2,0-.184.376c0,.046,0,.091,0,.137a1.275,1.275,0,0,1-1.222,1.336,3.168,3.168,0,0,1-.589.016,3.184,3.184,0,0,1-3.35-3.424,2.882,2.882,0,0,1,.849-2.043,2.559,2.559,0,0,1,1.886-.879,1.959,1.959,0,0,1,.828.18.782.782,0,0,1,.524.741,4.385,4.385,0,0,1-.335,1.066,1.675,1.675,0,0,0,.126.229,2.97,2.97,0,0,0,.744-.793q.762-1.007.912-1.181a.722.722,0,0,0-.293-.166,1.088,1.088,0,0,1-.4.1q-.1-.027-1.114-.384a3,3,0,0,0-1.087-.177,3.782,3.782,0,0,0-3.836,4.009,4.007,4.007,0,0,0,1.191,2.881,3.822,3.822,0,0,0,2.749,1.253q.143-.194.5-.6a2.51,2.51,0,0,1,1.026-.389,2.29,2.29,0,0,0,.9-.429,1.437,1.437,0,0,0,.378-.494,1.843,1.843,0,0,0,.1-.681q0-.143-.008-.332C212.9,457.6,212.876,457.4,212.608,457.4Z" transform="translate(-183.085 -442.729)" fill="#030504"/>
      <path id="Path_25386" data-name="Path 25386" d="M285.577,461.388a.5.5,0,0,0-.245.092.8.8,0,0,1-.431.13.912.912,0,0,1-.517-.176q-.866-.668-1.223-.994a.21.21,0,0,1-.084-.163.145.145,0,0,1,.1-.143,1.712,1.712,0,0,1,.843-.252,1.089,1.089,0,0,1,.351.056.36.36,0,0,0,.115.02q.191,0,.334-.349a2.367,2.367,0,0,0,.2-.933,1.623,1.623,0,0,0-.821-1.34,3.192,3.192,0,0,0-2.234-.453,3.539,3.539,0,0,0-1.457.548,1.352,1.352,0,0,0-.64,1.208,1.41,1.41,0,0,0,.056.364l.336-.28a.533.533,0,0,1-.084-.28,1.187,1.187,0,0,1,.642-.874,2.23,2.23,0,0,1,1.174-.349,2.727,2.727,0,0,1,1.312.288,1.063,1.063,0,0,1,.65.973q0,.841-1.849,1.85a.242.242,0,0,1-.115.036q-.194,0-.194-.372v-1.569q0-.3.42-.616.181-.138.181-.237c0-.039-.028-.058-.084-.058a.771.771,0,0,0-.265.071l-1.358.553q-.163.066-.163.137t.107.115a.53.53,0,0,1,.321.479v3.256a.628.628,0,0,1-.1.421.8.8,0,0,1-.318.14q-.374.107-.374.232t.4.122h1.85a.57.57,0,0,0,.28-.065c.078-.043.117-.091.117-.141q0-.156-.425-.148-.588.01-.588-.645v-.757a.7.7,0,0,1,.224-.42q.272-.2.4-.3a.376.376,0,0,1,.221-.1q.081,0,.25.181.713.775,1.009,1.177a.808.808,0,0,1,.181.479,1.363,1.363,0,0,1-.043.3.932.932,0,0,0-.028.214q0,.171.092.171a.355.355,0,0,0,.2-.11l1.3-1.162a.268.268,0,0,0,.1-.2A.1.1,0,0,0,285.577,461.388Z" transform="translate(-243.943 -446.279)" fill="#030504"/>
      <path id="Path_25387" data-name="Path 25387" d="M318.845,458.66a3.729,3.729,0,0,0-2.489-.792,2.022,2.022,0,0,0-1.165.358,1.025,1.025,0,0,0-.422.852,1.408,1.408,0,0,0,.018.219q.036.217.112.216.12,0,.12-.3c0-.025,0-.063-.008-.112s-.008-.087-.008-.112a.76.76,0,0,1,.5-.678,2.173,2.173,0,0,1,.994-.222,2.4,2.4,0,0,1,1.778.777,2.577,2.577,0,0,1,.772,1.857,3.055,3.055,0,0,1-.487,1.737,1.66,1.66,0,0,1-1.419.813q-.588.005-.588-.645v-3.223q0-.3.42-.617.181-.138.181-.237,0-.056-.084-.056a.8.8,0,0,0-.265.069l-1.205.477q-.166.066-.166.135c0,.039.037.078.11.117a.3.3,0,0,1,.171.2c0-.007,0,.076,0,.247v2.971a.492.492,0,0,1-.158.42,1.553,1.553,0,0,1-.374.14q-.375.107-.375.232t.4.122h1.962a1.776,1.776,0,0,0,.481-.069q.341-.1.443-.117a.834.834,0,0,1,.813.2A3.907,3.907,0,0,0,320,460.895,2.588,2.588,0,0,0,318.845,458.66Z" transform="translate(-272.73 -447.123)" fill="#030504"/>
      <path id="Path_25388" data-name="Path 25388" d="M348.624,458.38a1.4,1.4,0,0,1-.718-1.055.712.712,0,0,1,.678-.68.587.587,0,0,1,.453.207.676.676,0,0,1,.178.471,1.024,1.024,0,0,1-.022.173,1.034,1.034,0,0,0-.022.176q0,.16.1.16t.2-.143l.561-.757a.331.331,0,0,0,.074-.189q0-.089-.079-.089a.321.321,0,0,0-.165.066.122.122,0,0,1-.071.023,2.281,2.281,0,0,1-.455-.225,1.646,1.646,0,0,0-.788-.23,1.16,1.16,0,0,0-.9.4,1.329,1.329,0,0,0-.359.943,2.025,2.025,0,0,0,.678,1.472q.619.489,1.238.976a1.587,1.587,0,0,1,.662,1.195,1.412,1.412,0,0,1-.424,1.045,1.394,1.394,0,0,1-1.033.415,1.666,1.666,0,0,1-1.05-.359,1.231,1.231,0,0,1-.5-.917.783.783,0,0,1,.135-.487.467.467,0,0,1,.385-.242.372.372,0,0,1,.186.069l.392-.252a.315.315,0,0,0-.168-.2,1.006,1.006,0,0,0-.275-.038.764.764,0,0,0-.637.331,1.2,1.2,0,0,0-.293.772,1.518,1.518,0,0,0,.568,1.2,1.969,1.969,0,0,0,1.31.476,2.2,2.2,0,0,0,1.555-.61,1.9,1.9,0,0,0,.658-1.464,2.275,2.275,0,0,0-.728-1.674Q349.892,459.292,348.624,458.38Z" transform="translate(-298.971 -445.824)" fill="#030504"/>
      <path id="Path_25389" data-name="Path 25389" d="M253.462,463.058a.259.259,0,0,1-.127.034q-.2,0-.41-.29a5.088,5.088,0,0,1-.825-3.065q0-.264.043-1.35c0-.03.007-.077.015-.141a1.233,1.233,0,0,0,.01-.128q0-.253-.464-.254h-2.331l-.018.212h.533q.492,0,.492.172t-.415.494a4.09,4.09,0,0,0-1.093,1.435,3.856,3.856,0,0,0-.441,1.676c0,.049,0,.1.005.144a3.618,3.618,0,0,0,.421,1.568q.12.206.252.206a.4.4,0,0,0,.166-.044c.17-.09.392-.2.661-.33l.052-.024-.384-.638a2.328,2.328,0,0,1-.2-1.245q.021-.246.306-.262.369-.023,1.192-.052.326-.005.377.157.029.092.06.2a7.3,7.3,0,0,0,.558,1.392c.2.392.4.753.4.753a.29.29,0,0,0,.258.175.758.758,0,0,0,.354-.133l1.108-.67-.133-.233Zm-2.239-4.329q-.019.22-.054.623a5.474,5.474,0,0,0-.018.639l.022.734a.174.174,0,0,1-.195.138q-.882,0-1.213-.021-.24-.016-.239-.12l.035-.081A7.188,7.188,0,0,1,250.8,458.7l.013-.014a.45.45,0,0,1,.3-.189q.115,0,.115.17C251.225,458.689,251.224,458.709,251.222,458.73Z" transform="translate(-218.019 -447.123)" fill="#030504"/>
      <path id="Path_25390" data-name="Path 25390" d="M131.4,403.422H129q-.375,0-.375.123,0,.17.361.193a.382.382,0,0,1,.3.185.63.63,0,0,1,.111.367V409a.927.927,0,0,1-.176.563.759.759,0,0,1-.49.305q-.393.073-.393.185,0,.15.5.15H130.8q.554,0,.554-.15,0-.088-.317-.149-.481-.094-.481-1v-4.418a.834.834,0,0,1,.106-.481.617.617,0,0,1,.466-.2q.542-.047.543-.252Q131.674,403.422,131.4,403.422Z" transform="translate(-118.979 -402.224)" fill="#030504"/>
      <path id="Path_25391" data-name="Path 25391" d="M158.488,405.082a4.29,4.29,0,0,0-2.865-.912,2.326,2.326,0,0,0-1.341.412,1.179,1.179,0,0,0-.485.981,1.606,1.606,0,0,0,.021.252q.041.249.129.249.138,0,.138-.343,0-.044-.009-.129c-.006-.057-.009-.1-.009-.129a.874.874,0,0,1,.575-.78,2.5,2.5,0,0,1,1.143-.255,2.756,2.756,0,0,1,2.046.894,2.965,2.965,0,0,1,.888,2.137,3.515,3.515,0,0,1-.56,2,1.911,1.911,0,0,1-1.633.935q-.677.006-.677-.742v-3.709q0-.34.484-.709.208-.159.208-.273,0-.064-.1-.064a.914.914,0,0,0-.3.079l-1.387.548q-.191.076-.191.155t.126.135a.348.348,0,0,1,.2.232q0-.012,0,.284v3.419a.566.566,0,0,1-.182.484,1.781,1.781,0,0,1-.431.161q-.431.123-.431.267t.463.141h2.258a2.043,2.043,0,0,0,.554-.079q.393-.114.51-.135a.959.959,0,0,1,.935.226,4.5,4.5,0,0,0,1.258-3.161A2.977,2.977,0,0,0,158.488,405.082Z" transform="translate(-139.974 -402.837)" fill="#030504"/>
      <path id="Path_25392" data-name="Path 25392" d="M197.473,410.723q.393-.114.51-.135a.959.959,0,0,1,.935.226,4.5,4.5,0,0,0,1.258-3.161,2.978,2.978,0,0,0-1.328-2.571,4.29,4.29,0,0,0-2.865-.912,2.326,2.326,0,0,0-1.341.412,1.179,1.179,0,0,0-.485.981,1.606,1.606,0,0,0,.021.252q.041.249.129.249.138,0,.138-.343c0-.029,0-.072-.009-.129s-.009-.1-.009-.129a.874.874,0,0,1,.575-.78,2.5,2.5,0,0,1,1.143-.255,2.756,2.756,0,0,1,2.046.894,2.965,2.965,0,0,1,.888,2.137,3.515,3.515,0,0,1-.56,2,1.911,1.911,0,0,1-1.633.935q-.677.006-.677-.742v-3.709q0-.34.484-.709.208-.159.208-.273c0-.043-.032-.064-.1-.064a.914.914,0,0,0-.3.079l-1.387.548q-.19.076-.191.155t.126.135a.349.349,0,0,1,.2.232q0-.012,0,.284v3.419a.566.566,0,0,1-.182.484,1.782,1.782,0,0,1-.431.161q-.431.123-.431.267t.463.141h2.258A2.042,2.042,0,0,0,197.473,410.723Z" transform="translate(-173.259 -402.837)" fill="#030504"/>
      <path id="Path_25393" data-name="Path 25393" d="M276.391,405.965a3.718,3.718,0,0,0-1.061-2.548,3.032,3.032,0,0,0-2.4-1,6.166,6.166,0,0,0-1.949.606,1.378,1.378,0,0,0-.771,1.228,1.078,1.078,0,0,0,.064.419l.358-.146a.7.7,0,0,1-.1-.3.977.977,0,0,1,.6-.976,5.763,5.763,0,0,1,1.726-.48,1.187,1.187,0,0,1,.12.006,2.3,2.3,0,0,1,1.636.874,3.1,3.1,0,0,1,.686,2.093,5.326,5.326,0,0,1-.469,2.31,1.773,1.773,0,0,1-.668.784.287.287,0,0,0-.109.4l.084.142h1.743q.323,0,.322-.173a.268.268,0,0,0-.161-.235.363.363,0,0,1-.188-.343.937.937,0,0,1,.059-.3A6.926,6.926,0,0,0,276.391,405.965Z" transform="translate(-235.977 -401.395)" fill="#030504"/>
      <path id="Path_25394" data-name="Path 25394" d="M272.328,411.759q0,.762-.484.9-.43.124-.431.267t.463.14h2.153c.075,0,.135-.1.135-.174a.456.456,0,0,0-.039-.171.127.127,0,0,0-.1-.075q-.733-.1-.735-.988v-3.269a4.234,4.234,0,0,1,.018-.522.641.641,0,0,1,.281-.41q.343-.231.343-.44c0-.08-.052-.12-.155-.12a.826.826,0,0,0-.293.073l-1.29.525c-.137.057-.205.13-.205.22a.223.223,0,0,0,.141.194c.116.063.181.125.2.188,0,0,0,.08,0,.241Z" transform="translate(-236.974 -405.092)" fill="#030504"/>
      <path id="Path_25395" data-name="Path 25395" d="M83.522,406.521a.971.971,0,0,1-.619-.425c-.046-.1-.07-2.444-.07-2.762l.04-1.289a.513.513,0,0,1-.04-.27v-3.16q0-.265.459-.459t.449-.3q0-.118-.526-.118H80.667q-.425,0-.425.094,0,.115.578.327a1.9,1.9,0,0,1,.494.23.8.8,0,0,1,.2.612v3.3a3.436,3.436,0,0,0-.881-1.8.7.7,0,0,0-.48-.268,1.063,1.063,0,0,0-.553.306L77.622,402.1l0-.011a.125.125,0,0,1-.1-.043.513.513,0,0,1-.04-.27v-3.16q0-.265.459-.459t.449-.3q0-.118-.526-.118h-2.5q-.425,0-.425.094,0,.115.578.327a1.9,1.9,0,0,1,.494.23.8.8,0,0,1,.195.612v7.29q0,.414.09.5a.378.378,0,0,0,.254.115h1.66q.355,0,.355-.115,0-.136-.393-.265a.971.971,0,0,1-.62-.425c-.046-.1-.07-2.444-.07-2.762a.844.844,0,0,1,.073-.35l1.489-1.143a.463.463,0,0,1,.293-.115c.258,0,.468.095.689.563a3.156,3.156,0,0,1,.314,1.243l1.17-.406v3.163c0,.523.03.442.09.5a.377.377,0,0,0,.254.115h1.706q.355,0,.355-.115Q83.916,406.65,83.522,406.521Z" transform="translate(-74.939 -397.534)" fill="#030504"/>
      <path id="Path_25396" data-name="Path 25396" d="M422.016,403.278a1.608,1.608,0,0,1-.827-1.214.819.819,0,0,1,.78-.783.677.677,0,0,1,.522.237.779.779,0,0,1,.205.542,1.171,1.171,0,0,1-.025.2,1.178,1.178,0,0,0-.025.2q0,.185.114.185t.235-.164l.645-.871a.379.379,0,0,0,.085-.217c0-.068-.03-.1-.091-.1a.371.371,0,0,0-.191.076.14.14,0,0,1-.082.026,2.627,2.627,0,0,1-.523-.259,1.9,1.9,0,0,0-.907-.265,1.335,1.335,0,0,0-1.038.463,1.528,1.528,0,0,0-.413,1.085,2.33,2.33,0,0,0,.78,1.695q.712.563,1.425,1.123a1.827,1.827,0,0,1,.762,1.375,1.624,1.624,0,0,1-.488,1.2,1.605,1.605,0,0,1-1.189.478,1.92,1.92,0,0,1-1.208-.413,1.416,1.416,0,0,1-.572-1.056.9.9,0,0,1,.155-.56.539.539,0,0,1,.443-.278.427.427,0,0,1,.214.079l.451-.29a.361.361,0,0,0-.194-.226,1.153,1.153,0,0,0-.317-.044.879.879,0,0,0-.733.381,1.377,1.377,0,0,0-.337.888,1.748,1.748,0,0,0,.654,1.387,2.267,2.267,0,0,0,1.507.548,2.534,2.534,0,0,0,1.79-.7,2.189,2.189,0,0,0,.758-1.684,2.618,2.618,0,0,0-.839-1.926Q423.476,404.328,422.016,403.278Z" transform="translate(-359.246 -400.12)" fill="#030504"/>
      <path id="Path_25397" data-name="Path 25397" d="M453.917,401.54h-2.4q-.375,0-.375.123,0,.17.361.193a.382.382,0,0,1,.3.185.63.63,0,0,1,.111.367v4.709a.927.927,0,0,1-.176.563.757.757,0,0,1-.49.3q-.393.073-.393.185,0,.15.5.15h1.964q.554,0,.554-.15,0-.088-.317-.15-.481-.094-.481-1V402.6a.832.832,0,0,1,.106-.481.616.616,0,0,1,.466-.2q.542-.047.543-.252Q454.193,401.54,453.917,401.54Z" transform="translate(-384.965 -400.672)" fill="#030504"/>
      <path id="Path_25398" data-name="Path 25398" d="M478.069,404.395q-.068-.067-1.528-1.117a1.608,1.608,0,0,1-.827-1.214.818.818,0,0,1,.78-.783.676.676,0,0,1,.522.237.779.779,0,0,1,.205.542,1.173,1.173,0,0,1-.025.2,1.2,1.2,0,0,0-.025.2q0,.185.114.185t.235-.164l.645-.871a.379.379,0,0,0,.085-.217c0-.068-.03-.1-.091-.1a.371.371,0,0,0-.191.076.141.141,0,0,1-.082.026,2.631,2.631,0,0,1-.523-.259,1.9,1.9,0,0,0-.907-.265,1.335,1.335,0,0,0-1.038.463,1.528,1.528,0,0,0-.413,1.085,2.33,2.33,0,0,0,.78,1.695q.713.563,1.425,1.123a1.827,1.827,0,0,1,.762,1.375,1.625,1.625,0,0,1-.488,1.2,1.606,1.606,0,0,1-1.189.478,1.921,1.921,0,0,1-1.208-.413,1.416,1.416,0,0,1-.572-1.056.9.9,0,0,1,.155-.56.539.539,0,0,1,.443-.278.427.427,0,0,1,.214.079l.452-.29a.362.362,0,0,0-.194-.226,1.155,1.155,0,0,0-.317-.044.88.88,0,0,0-.733.381,1.377,1.377,0,0,0-.337.888,1.749,1.749,0,0,0,.654,1.387,2.267,2.267,0,0,0,1.507.548,2.533,2.533,0,0,0,1.79-.7,2.189,2.189,0,0,0,.758-1.684A2.618,2.618,0,0,0,478.069,404.395Z" transform="translate(-404.214 -400.12)" fill="#030504"/>
      <path id="Path_25399" data-name="Path 25399" d="M330.851,396.587A4.431,4.431,0,0,0,327.6,398a4.686,4.686,0,0,0-1.359,3.426,5.1,5.1,0,0,0,1.026,3.16,3.1,3.1,0,0,0,2.64,1.368,5.049,5.049,0,0,0,3.453-1.42,4.633,4.633,0,0,0,1.531-3.507,4.527,4.527,0,0,0-1.176-3.135A3.663,3.663,0,0,0,330.851,396.587Zm2.9,5.423a3.291,3.291,0,0,1-.911,2.16,2.607,2.607,0,0,1-2.084.846,3.439,3.439,0,0,1-2.666-1.424,4.478,4.478,0,0,1-.934-3.019,3.368,3.368,0,0,1,.847-2.2,2.521,2.521,0,0,1,2.065-.854,3.57,3.57,0,0,1,2.738,1.435A4.353,4.353,0,0,1,333.755,402.01Z" transform="translate(-282.188 -396.587)" fill="#030504"/>
      <path id="Path_25400" data-name="Path 25400" d="M236.584,405.474a1.337,1.337,0,0,1,1.029-.481,1.467,1.467,0,0,1,.962.345c.016.012.032.026.046.039a1.251,1.251,0,0,1,.453.931.2.2,0,0,0,.227.078.376.376,0,0,0,.188-.135,5.006,5.006,0,0,1,.483-1.289,1.216,1.216,0,0,0,.153-.358q0-.088-.106-.088a.744.744,0,0,0-.24.059l-.261.123a.687.687,0,0,1-.287.07,4.572,4.572,0,0,1-.754-.079,4.609,4.609,0,0,0-.762-.082c-.056,0-.111,0-.166,0a2.335,2.335,0,0,0-1.752.9,3.324,3.324,0,0,0-.695,2.161,4.606,4.606,0,0,0,.672,2.3,2.052,2.052,0,0,0,1.757,1.038h.015c.054,0,.112,0,.175-.007a5.587,5.587,0,0,0,.587-.075,4.587,4.587,0,0,1,.754-.08.688.688,0,0,1,.288.071l.261.123a.742.742,0,0,0,.24.059c.07,0,.106-.029.106-.088a1.222,1.222,0,0,0-.153-.358,4.98,4.98,0,0,1-.483-1.289.375.375,0,0,0-.188-.135.2.2,0,0,0-.228.079,1.25,1.25,0,0,1-.452.931c-.021.018-.042.036-.063.053a1.712,1.712,0,0,1-.416.116.859.859,0,0,1-.613-.129,3.51,3.51,0,0,1-.674-.748,3.659,3.659,0,0,1-.342-.749c-.016-.046-.032-.094-.048-.143-.025-.08-.039.047-.039-.012a.27.27,0,0,1,0-.04c.014-.125.1-.188.261-.188h2.29l.147,0a1.619,1.619,0,0,1,.3.028.217.217,0,0,1,.054.02.2.2,0,0,0,.1.029q.179,0,.179-.19a.387.387,0,0,0-.044-.167,1.1,1.1,0,0,1-.106-.361c-.071-.415-.329-.218-.329-.218,0,.023.021.141.021.162q0,.255-.425.255h-2.193c-.156,0-.289.007-.308-.05a4.118,4.118,0,0,1-.079-1.144A2.238,2.238,0,0,1,236.584,405.474Z" transform="translate(-207.029 -403.128)" fill="#030504"/>
      <path id="Path_25401" data-name="Path 25401" d="M385.833,410.143a.3.3,0,0,1-.147.039q-.226,0-.472-.334a5.855,5.855,0,0,1-.95-3.528q0-.3.05-1.553c0-.034.008-.088.017-.162a1.364,1.364,0,0,0,.012-.147q0-.292-.534-.292h-2.683l-.021.244h.613q.566,0,.566.2,0,.186-.478.569a4.705,4.705,0,0,0-1.258,1.652,4.439,4.439,0,0,0-.507,1.929q0,.084.006.166a4.165,4.165,0,0,0,.484,1.8q.138.238.29.238a.46.46,0,0,0,.191-.051c.2-.1.451-.231.761-.379l.06-.027-.442-.734a2.677,2.677,0,0,1-.235-1.433q.024-.283.352-.3.425-.027,1.372-.06.375-.006.434.181c.022.07.045.148.069.234a8.382,8.382,0,0,0,.643,1.6c.236.451.464.867.464.867a.333.333,0,0,0,.3.2.87.87,0,0,0,.408-.154l1.275-.77-.152-.268Zm-2.577-4.982q-.022.253-.062.717a6.292,6.292,0,0,0-.021.735l.026.844a.2.2,0,0,1-.224.16q-1.014,0-1.4-.024-.276-.018-.276-.138l.041-.094a8.273,8.273,0,0,1,1.428-2.231l.015-.016a.518.518,0,0,1,.34-.217q.132,0,.132.2C383.259,405.114,383.258,405.137,383.256,405.161Z" transform="translate(-326.562 -402.837)" fill="#030504"/>
    </g>
    <g id="Group_3267" data-name="Group 3267" transform="translate(13.738 0)">
      <path id="Path_25402" data-name="Path 25402" d="M328.711,233.216a2.322,2.322,0,0,0-1.9.787,3.1,3.1,0,0,0-.78,2.025,4.126,4.126,0,0,0,.86,2.781,3.167,3.167,0,0,0,2.455,1.312,2.4,2.4,0,0,0,1.92-.779,3.031,3.031,0,0,0,.839-1.99,4.009,4.009,0,0,0-.869-2.814A3.288,3.288,0,0,0,328.711,233.216Z" transform="translate(-295.75 -204.954)" fill="#030504"/>
      <path id="Path_25403" data-name="Path 25403" d="M200.532,106.167l-.641-1.1-1.162-.133.514-.56,1.29-.131V87.317a3.154,3.154,0,0,0-1.577-2.731L195.172,82.4l-2.855,1,.8-1.217-1.787-2h0l-7.616-4.4a2.111,2.111,0,0,1-1.753-1.012l-4.6-2.656a.867.867,0,0,0-.867,0l-15.575,8.971a.927.927,0,0,0-.029.165l.579.754-1.364.077-3.142,1.308-2.068,1.194a3.154,3.154,0,0,0-1.577,2.731v8.412a.185.185,0,0,1,.13.226c-.05.2-.092.406-.13.61v3.754a3.807,3.807,0,0,1,0,1.961v5.944c.064.172.125.345.192.516a1.313,1.313,0,0,1,.655.928l-.847-.6v3.738a3.154,3.154,0,0,0,1.577,2.731l5.266,3.04a.189.189,0,0,1,.254-.07,1.614,1.614,0,0,1,.612.57l15.467,8.93a.867.867,0,0,0,.867,0l8.318-4.8A4.9,4.9,0,0,0,187,121.7c.257-.781,2.132-.488,3.226-1.12l8.733-5.042a3.154,3.154,0,0,0,1.577-2.731ZM171.3,121.435l.028-1.345-.753-.807-.434.016-1.358-.375-.755-1.166h0l.228-.11.375-.183.565.9,1.276.2,1.535-.885.8-.938a5.3,5.3,0,0,0-.232.953q-.043.286-.059.587l-.182.142-1.051.418.611.825c0,.056.072,1.165.072,1.165l.859.231c.051.136.107.271.17.4s.128.253.2.376Zm6.12-7.072a3.211,3.211,0,0,1,1.161.189l.582.2c.354.123.56.193.609.207a.25.25,0,0,0,.086-.007h0a2.307,2.307,0,0,0,.339-.1.772.772,0,0,1,.314.178q-.161.185-.975,1.262l-.019.025c-.053.07-.1.134-.152.2l-.013.017a2.357,2.357,0,0,1-.611.611,1.82,1.82,0,0,1-.134-.244,4.684,4.684,0,0,0,.359-1.14.835.835,0,0,0-.56-.792,2.091,2.091,0,0,0-.885-.192,2.737,2.737,0,0,0-2.017.94,3.5,3.5,0,0,0-.55.75c-.009.017-.016.034-.025.051l-.014.029a2.978,2.978,0,0,0-.319,1.353,3.4,3.4,0,0,0,3.581,3.66,3.389,3.389,0,0,0,.63-.018,1.363,1.363,0,0,0,1.306-1.428c0-.049,0-.1,0-.146q-.021-.4.2-.4c.286,0,.312.217.32.378q.009.2.009.355a1.962,1.962,0,0,1-.107.727,1.53,1.53,0,0,1-.4.528,2.45,2.45,0,0,1-.958.458,2.684,2.684,0,0,0-1.1.416q-.385.437-.538.644a4.085,4.085,0,0,1-2.939-1.34,4.282,4.282,0,0,1-1.274-3.079,5.336,5.336,0,0,1,.108-1.076,4.148,4.148,0,0,1,.347-1.028,3.783,3.783,0,0,1,.316-.514,3.851,3.851,0,0,1,.413-.491A4.178,4.178,0,0,1,177.422,114.363Zm8.2,4.579-1.458.357-.434-.016-.753.807.028,1.345-1.671.362a2.116,2.116,0,0,0,.056-.215,2.927,2.927,0,0,0,.055-.414l.9-.332s.074-1.109.072-1.165l.611-.825-1.051-.418-1.107-.86-.347-.61c.127-.167.228-.3.309-.4.126-.163.2-.258.245-.312l1.222,1.442,1.642.819,1.235-.111.491-.91.368.181.193.095Zm9.733-23.825-.182.03c-.146.023-.288.045-.406.062-.088.012-.173.021-.255.025a1.941,1.941,0,0,1-.4-.022,1.545,1.545,0,0,1-.167-.037,1.379,1.379,0,0,1-.288-.111,1.67,1.67,0,0,1-.514-.447,1.092,1.092,0,0,0-.122-.128.826.826,0,0,0-.6-.229c-.023,0-.048.007-.072.011l-.253.912-1.553,1.334h0l.989.709,3.742-.257-.282.96-1.819-.117-.452.128a5.5,5.5,0,0,1,.673.209,1.121,1.121,0,0,1,.757,1.146c-.023.544-.039,1.091-.1,1.632-.006.057-.011.115-.019.172a1.413,1.413,0,0,1-.053.231,1.766,1.766,0,0,0-.121-.234,1.184,1.184,0,0,0-.161-.206.9.9,0,0,0-.07-.059,1.188,1.188,0,0,0-.2-.136,1.655,1.655,0,0,0-.372-.287,1.367,1.367,0,0,1-.69-1.449,1.06,1.06,0,0,0-.017-.429.5.5,0,0,0-.138-.219h0a.35.35,0,0,1-.048-.057l-.01-.015a.36.36,0,0,1-.049-.123l-.918.259-.4-.291-3.629-2.65-.465.035-.591.045-.989-.332-1.164.5-.729.111-1.458.222-2.261,1.915-.1.087.119,1.9.222,1.846-.092.395-.063.272.247,2.421-.293,2.459.3.25.6.5.705,1.461,3.387.792,1.445,1.378.987.165,1.2,2h-.564l-.777-1.376-.389.082-.071,1.628h1.094l.7.207,1.016-.884.006-.021-.033.021.293-1.075.027.006,0-.006-.026-.016h0l-1.457-.9-1.868-.376h0l-.088-.169-.067-.128-.128-.245,1.8.167,1.622.585.776-.876.916-.416.389-1,.353.291h0v1.127l-.847.543-.669.918-.094.615,1.4.3.336-.813c-.017-.1-.017-1.043-.017-1.043l.25-.151h0l.32-.193h0l.009.5.011.566,1.326-.755.606.391-.215.124-.294.17h0l1.529.918-.33.506h0l-1.758-1.1-.937.542-.185.455-.011.026.633.136.878-.4.319.186h0l.313.182-.866.367-.643.273h0l-.85-.2-.828,2.045h0l-1.907-.495.464-.489h0l1.029.242.6-1.455h0l-1.259-.3-.062.4-.011.072-1.34,1.419H186.57s-.671.836-.776.92a2.483,2.483,0,0,1-.777,0h0l.282-1.336.426-.834.019-.645.014-.482-1.34-1.252-1.658-.084h0l-1.134-.609-.806-.432h0l-.346.153-.218.1,1.608,1.815,2.484-.439.387.367h0l.316.3-2.433.543.636,1.545.74,1.329.953.381h1.164l1.306-.836h.669l-1.729,1.461.377-.319a6.894,6.894,0,0,0,1.246.514c.047-.076,1.672-1.558,1.672-1.558l.578.263-2.145,2.157L185.956,117l.4-.048-1.633.2h0l-.779-.467-.7-.422h0l-.518,1.083-.245-.249-.437-.445.069-.336.215-1.056-.06-.431-.084-.6-.4-.36-.889-.794-1.411-1.726-.247-.3h0l-.6.351-.208.121v1.014l1.192,1.518-.758-.265-.01,0a4.291,4.291,0,0,0-.7-.18l-.445-.8-.46-.479h-.257l-.221.23-.239.249-.536.962a4.8,4.8,0,0,0-1.208.53l-.022-.01,1.041-1.754v-1.014l0,0-.808-.47-1.658,2.028-1.292,1.154-.144,1.029.284,1.392-.682.694-.518-1.083-1.482.89h0l-1.633-.2.4.048-2.13,1.009-2.145-2.157.578-.263s1.626,1.483,1.673,1.558a6.9,6.9,0,0,0,1.246-.514l.377.319-1.729-1.461h.67l1.305.836h1.164l.953-.381.74-1.329.636-1.545h0l-2.433-.543.316-.3h0l.388-.367,2.484.439,1.608-1.815-.008,0-.556-.246-1.94,1.041h0l-1.657.084-1.34,1.252.033,1.127.425.834.282,1.336s-.128.015-.282.026a1.2,1.2,0,0,1-.5-.026c-.105-.084-.776-.92-.776-.92h-2.011l-1.34-1.419-.072-.475-1.259.3.6,1.455,1.029-.242h0l.008.008.456.481-1.907.495-.1-.236-.732-1.809-.851.2-1.511-.64h0l.633-.368.878.4L162.1,113l-.195-.481-.937-.543-1.758,1.1h0l-.189-.29h0l-.141-.217,1.528-.918-.372-.215-.136-.079h0l.606-.391,1.325.755.021-1.062.32.193.251.152s0,.945-.017,1.043l.336.813,1.4-.3h0l-.094-.615-.669-.918-.847-.543v-1.127l.171-.142h0l.182-.15.389,1,.916.416.776.876,1.622-.585,1.8-.167-.284.543-1.71.344-.159.032-.527.327-.93.576,0,.015.3,1.106.982.853.7-.207h1.094l-.071-1.628-.389-.082-.776,1.376h-.563l1.2-2,.987-.165,1.445-1.378,2.849-.666.538-.126.282-.584.423-.876.9-.751v-3.127h0l.013-.1.288-2.194V99.522l-.6-1.5-2.364-2-2.187-.334-.583-.25-.583-.25-.5.168-.485.163-.53-.04-.53-.04-4.027,2.941h0l-.216-.076-.694-.245c0,.01,0,.021,0,.031s0,.008,0,.012a.354.354,0,0,1-.051.141l-.01.015a.362.362,0,0,1-.048.057h0a.5.5,0,0,0-.138.219,1.063,1.063,0,0,0-.017.429,1.367,1.367,0,0,1-.69,1.449,1.65,1.65,0,0,0-.372.287,1.18,1.18,0,0,0-.2.134.928.928,0,0,0-.072.061,1.169,1.169,0,0,0-.161.206,1.727,1.727,0,0,0-.121.234,1.39,1.39,0,0,1-.053-.231c-.008-.061-.014-.121-.02-.182-.06-.537-.076-1.08-.1-1.621a1.121,1.121,0,0,1,.757-1.146,5.4,5.4,0,0,1,.859-.25l-.225-.079-.109.007-1.687.1-.28-.96,3.3.257.987-.709-.776-.667-.776-.667-.247-.89-.006-.022c-.024,0-.049-.009-.073-.011a.829.829,0,0,0-.613.236,1.087,1.087,0,0,0-.113.12,1.726,1.726,0,0,1-.424.389,1.374,1.374,0,0,1-.176.1,1.4,1.4,0,0,1-.205.074,1.521,1.521,0,0,1-.182.039,1.948,1.948,0,0,1-.384.019h0l-.064-.006c-.063,0-.125-.009-.191-.018l-.287-.043-.1-.016-.195-.032c-.357-.059-.687-.116-.687-.116.063-.044.12-.088.176-.131l.079-.062h0a4.487,4.487,0,0,0,1.019-1.283,1.107,1.107,0,0,1,1.449-.308,5.877,5.877,0,0,1,.8.427l-.313-1.131L162.3,90.3H162.3a.5.5,0,0,0-.255.048,1.063,1.063,0,0,0-.325.28,1.9,1.9,0,0,1-.324.3,1.255,1.255,0,0,1-.758.25,1.638,1.638,0,0,1-.449-.068,1.657,1.657,0,0,0-.463-.077,1.289,1.289,0,0,0-.151-.042.969.969,0,0,0-.175-.022,1.289,1.289,0,0,0-.388.054c-.042.012-.084.026-.126.041a1.4,1.4,0,0,1,.133-.2c.382-.465.815-.888,1.239-1.317a1.121,1.121,0,0,1,1.355-.228,5.064,5.064,0,0,1,.935.585l.374-.609.076.451.1.594L161.825,92.6l.458,1.919,1.819,1.095,3.017-1.576h0l-2.33-1.313-.178.1-1.906,1.108-.245-1,1.693-1.085-.564-1.626.176-2.753.351-.46a2.5,2.5,0,0,1-.46.05h0a2.308,2.308,0,0,1-.238-.01l-.023,0a2.3,2.3,0,0,1-.669-.173l-.006,0-.188-.079-.02-.008a3.2,3.2,0,0,0-.648-.2.913.913,0,0,0-.163-.013,1.162,1.162,0,0,1,.146-.128c.4-.29.829-.537,1.252-.791a.918.918,0,0,1,1.122.1,4.463,4.463,0,0,1,.49.489l.717-.938,1.482-.585h0V85.3l-.585.294-.579.291-.984,1.389-.287.405V89.97l1.2,2.044,3.385,1.794.4.007a.992.992,0,0,1-.443-.582,1.8,1.8,0,0,1-.065-.686,2.14,2.14,0,0,1,.519-1.178h0v0h0a.131.131,0,0,0,0,.041v0a.473.473,0,0,0,.032.093l0,.007a1.322,1.322,0,0,0,.086.155l.009.014c.021.032.045.067.072.106a4.967,4.967,0,0,0,.326.4,1.461,1.461,0,0,1,.1,1.636l1.392.023,3.738,2.21-.316-2.335-.216-.8-.245-.909-.141-.084a1.619,1.619,0,0,1-1.366,1.178,5.068,5.068,0,0,0-.706.085c-.065.014-.119.028-.164.041-.2.062-.232.119-.232.119h0a2.32,2.32,0,0,1,1.136-1.9,1.134,1.134,0,0,1,.764-.136l-.7-1.305-2.153-.084h0l-1.936-.539-.771-.223.01.03a1.377,1.377,0,0,1-.2,1.491l-.068.091-.006.007-.084.113,0,0-.094.129h0l-.1.141,0,0c-.068.1-.136.2-.2.292h0c-.063.1-.119.19-.163.272a.919.919,0,0,0-.089.213,1.149,1.149,0,0,1-.09-.173,10.764,10.764,0,0,1-.269-1.167,1.2,1.2,0,0,1,.3-1.265c.149-.107.29-.246.445-.361l-.065-.019-2.609.5v-1l2.856-.585-.316-1.419.14-2,1.034-1.631a.472.472,0,0,0-.111.012.71.71,0,0,0-.11.038l-.022.009c-.043.019-.085.042-.127.065a1.393,1.393,0,0,1-.493.174,1.023,1.023,0,0,1-.162.009,1.141,1.141,0,0,1-.646-.239,1.338,1.338,0,0,0-.332-.187l-.022-.015a.888.888,0,0,0-.2-.119l-.011-.006a1.149,1.149,0,0,0-.418-.071,1.124,1.124,0,0,1,.156-.113c.42-.248.868-.451,1.31-.66a.909.909,0,0,1,1.1.2,4.443,4.443,0,0,1,.378.448l.557-.878h2.107l-.316.667-1.376.167-1.516,2.5.071,1.587.153.5.305,1,1.447.751h2.08l1.518.667.1-1.167-1.162-2.212-.269-.192-.035-.025a.163.163,0,0,0,.017.023c-.128.278-.094.948-1.049,1.268a8.2,8.2,0,0,0-1.253.5.621.621,0,0,0-.1.074,1.1,1.1,0,0,1,.024-.189,10.48,10.48,0,0,1,.43-1.089,1.172,1.172,0,0,1,.946-.849c.179,0,.369-.037.556-.043L171.527,85l-1.377-.251L168.88,85h0l.573-.96h1.756l.706-1.835.458-1.543,1.656-.627,1.618.5-.391.433-.247.276-.872-.374-.7.441-.429.268L172.2,84.3l1.447,1.168.176-2.253-.11-.136-.561-.7.424-.751h0l.094.05.1.056.968.52.874-.893.761-.774.517-.029.516.029.761.774.872.893.97-.52.1-.056.094-.05.424.751-.669.834.176,2.253L181.58,84.3l-.813-2.712-.429-.268-.7-.441-.872.374-.247-.276-.391-.433,1.618-.5,1.658.627.458,1.543.705,1.835h1.756l.573.96-1.269-.251L182.251,85l-.606.433c.186.006.376.039.554.043a1.172,1.172,0,0,1,.946.849,10.519,10.519,0,0,1,.43,1.089,1.136,1.136,0,0,1,.023.189.622.622,0,0,0-.1-.074,8.192,8.192,0,0,0-1.253-.5c-.955-.319-.921-.99-1.049-1.268a.151.151,0,0,0,.015-.019l-.3.214-1.165,2.212.105,1.167,1.516-.667h2.082l1.447-.751.458-1.5.069-1.587-1.516-2.5-1.376-.167-.316-.667h2.109l.557.878a4.462,4.462,0,0,1,.378-.448.909.909,0,0,1,1.1-.2c.442.209.89.412,1.31.66a1.121,1.121,0,0,1,.156.113,1.149,1.149,0,0,0-.418.071l-.011.006a.889.889,0,0,0-.208.126l-.012.009a.973.973,0,0,0-.157.073,1.827,1.827,0,0,0-.175.114,1.14,1.14,0,0,1-.646.239,1.022,1.022,0,0,1-.162-.009,1.394,1.394,0,0,1-.493-.174c-.042-.023-.085-.046-.127-.065l-.013-.006a.731.731,0,0,0-.119-.041.543.543,0,0,0-.067-.011.426.426,0,0,0-.045,0l1.033,1.631.142,2-.318,1.419,2.858.585v1l-.474-.091-2.135-.409-.011,0-.054.016c.155.114.3.253.445.361a1.2,1.2,0,0,1,.3,1.265,10.786,10.786,0,0,1-.269,1.167,1.149,1.149,0,0,1-.09.173.922.922,0,0,0-.089-.213,5.764,5.764,0,0,0-.362-.566l0,0c-.068-.1-.135-.188-.2-.27l0,0-.084-.113-.006-.007-.068-.091a1.36,1.36,0,0,1-.219-1.448l.026-.074-.773.223-1.814.505-.124.035-1.149.045-1,.039-.7,1.305a1.135,1.135,0,0,1,.765.136,2.32,2.32,0,0,1,1.136,1.9h0s-.034-.071-.307-.14a4.525,4.525,0,0,0-.8-.106,1.62,1.62,0,0,1-1.366-1.179l-.143.085-.458,1.71-.318,2.335,3.738-2.21,1.393-.023a1.461,1.461,0,0,1,.1-1.636,4.933,4.933,0,0,0,.326-.4c.028-.038.051-.073.072-.105l.009-.015a1.341,1.341,0,0,0,.086-.155l0-.007a.478.478,0,0,0,.032-.093v0a.143.143,0,0,0,0-.041h0a.025.025,0,0,0,0,0h0a2.119,2.119,0,0,1,.223.306,2.081,2.081,0,0,1,.3.872q.006.065.008.133a1.807,1.807,0,0,1-.073.553,1,1,0,0,1-.253.436.985.985,0,0,1-.189.146l.4-.007,3.385-1.794,1.2-2.044V87.675l-1.271-1.794L186.87,85.3h0v-.585h0l1.482.585.717.938a4.458,4.458,0,0,1,.49-.489.918.918,0,0,1,1.122-.1c.424.254.854.5,1.252.791a1.165,1.165,0,0,1,.146.128.912.912,0,0,0-.163.013,3.2,3.2,0,0,0-.648.2l-.019.008-.189.079-.006,0a2.293,2.293,0,0,1-.654.171l-.046,0c-.078.007-.155.01-.229.009h0a2.493,2.493,0,0,1-.46-.05l.351.46.176,2.753-.565,1.626,1.693,1.085-.1.422h0l-.142.58h0l-1.041-.606-1.04-.6-.13.072-1.8,1.015-.118.074,2.772,1.7,1.783-1.072.458-1.919-1.269-2.251.177-1.045h0l.374.609a5.066,5.066,0,0,1,.934-.585,1.121,1.121,0,0,1,1.355.228c.424.429.857.852,1.239,1.317a1.4,1.4,0,0,1,.133.2c-.042-.015-.084-.029-.126-.041a1.288,1.288,0,0,0-.388-.054.969.969,0,0,0-.175.022,1.3,1.3,0,0,0-.151.042,1.658,1.658,0,0,0-.463.077,1.636,1.636,0,0,1-.449.068,1.255,1.255,0,0,1-.758-.25,1.91,1.91,0,0,1-.324-.3,1.064,1.064,0,0,0-.325-.28.5.5,0,0,0-.255-.048h-.006l1.36,2.213-.313,1.131a5.864,5.864,0,0,1,.8-.427,1.106,1.106,0,0,1,1.449.308,4.486,4.486,0,0,0,1.019,1.283h0l.078.062c.056.043.112.087.176.131C196.043,95,195.715,95.059,195.358,95.118Zm-4.649,8.373a4.268,4.268,0,0,1-1.411,3.23,4.652,4.652,0,0,1-3.181,1.309,2.859,2.859,0,0,1-2.432-1.26,4.7,4.7,0,0,1-.945-2.91,4.318,4.318,0,0,1,1.252-3.156,4.082,4.082,0,0,1,3-1.3,3.374,3.374,0,0,1,2.635,1.2A4.17,4.17,0,0,1,190.71,103.491Zm-25.263-.025a.116.116,0,0,0,.088.04l0,.01,1.817-1.441a.978.978,0,0,1,.51-.282.646.646,0,0,1,.442.247,3.164,3.164,0,0,1,.812,1.66v-3.041a.738.738,0,0,0-.18-.564,1.758,1.758,0,0,0-.455-.212q-.532-.2-.532-.3,0-.087.391-.087h2.348q.484,0,.484.109t-.414.279q-.423.18-.423.423v2.911a.471.471,0,0,0,.037.249l-.037,1.187c0,.293.021,2.455.064,2.544a.894.894,0,0,0,.571.391q.362.119.362.244,0,.106-.327.106h-1.572a.348.348,0,0,1-.234-.106c-.056-.051-.083.023-.083-.459V104.46l-1.078.374a2.9,2.9,0,0,0-.289-1.145c-.2-.432-.4-.519-.634-.519a.427.427,0,0,0-.27.106l-1.37,1.052a.773.773,0,0,0-.069.324c0,.293.021,2.455.064,2.544a.894.894,0,0,0,.571.391q.362.119.362.244,0,.106-.327.106H164.55a.348.348,0,0,1-.234-.106q-.083-.077-.083-.459v-6.715a.738.738,0,0,0-.18-.564,1.759,1.759,0,0,0-.455-.212q-.532-.2-.532-.3,0-.087.391-.087h2.305q.484,0,.484.109t-.413.279q-.423.18-.423.423v2.911A.471.471,0,0,0,165.446,103.465Z" transform="translate(-153.314 -72)" fill="#030504"/>
      <path id="Path_25404" data-name="Path 25404" d="M279.768,128.577l-2.1-2.377-2.1,2.377-.056,2.691,1.058,3.065.811,1.167.284.836.28-.836.813-1.167,1.058-3.065Zm-2.1,5-1.118-2.871,1.118-2.871,1.118,2.871Z" transform="translate(-254.099 -116.699)" fill="#030504"/>
    </g>
  </g>
</svg>
