<svg xmlns="http://www.w3.org/2000/svg" width="96.923" height="64.668" viewBox="0 0 96.923 64.668">
  <g id="Group_1366" data-name="Group 1366" opacity="1">
    <g id="Group_1363" data-name="Group 1363" transform="translate(21.482)">
      <path id="Path_761" data-name="Path 761" d="M996.957,106.125V97.841c0-3.572-3.7-6.4-8.379-6.4H980.2v37.064h8.382c4.329,0,8.379-2.559,8.379-6.4v-7.994a5.464,5.464,0,0,0-1.886-4A5.321,5.321,0,0,0,996.957,106.125Zm-6.287,15.988c0,.907-.907,1.6-2.092,1.6h-2.1V112.518h2.1c1.186,0,2.092.694,2.092,1.6Zm0-16.276c0,.9-.907,1.6-2.092,1.6h-2.1V96.241h2.1c1.186,0,2.092.694,2.092,1.6Z" transform="translate(-942.996 -91.445)" fill="#231f20"/>
      <path id="Path_762" data-name="Path 762" d="M963.295,128.288c-2.449-.657-3.26-2.254-3.26-4.52V104.521H957.5V99.24h2.532l.6-7.725h5.385V99.24h3.8v5.281h-3.8v17.852c0,1.253.742,1.768,2.27,1.768h1.041Z" transform="translate(-936.859 -91.464)" fill="#231f20"/>
      <g id="Group_1362" data-name="Group 1362" transform="translate(0 0.01)">
        <path id="Path_763" data-name="Path 763" d="M937.587,101.113c-4.678,0-8.382,2.724-8.382,6.17v10.705c0,3.446,3.7,6.17,8.382,6.17s8.379-2.724,8.379-6.17V107.283C945.967,103.837,942.266,101.113,937.587,101.113Zm2.092,16.875c0,.876-.907,1.542-2.092,1.542s-2.1-.666-2.1-1.542V107.283c0-.875.907-1.542,2.1-1.542s2.092.667,2.092,1.542Z" transform="translate(-929.205 -94.07)" fill="#231f20"/>
        <rect id="Rectangle_285" data-name="Rectangle 285" width="11.173" height="3.827" transform="translate(2.795 33.226)" fill="#231f20"/>
        <rect id="Rectangle_286" data-name="Rectangle 286" width="11.173" height="3.827" transform="translate(2.795)" fill="#231f20"/>
      </g>
    </g>
    <g id="Group_1364" data-name="Group 1364" transform="translate(77.287)">
      <path id="Path_764" data-name="Path 764" d="M1005.7,91.445V91.9h.8v2.25h.549V91.9h.8v-.457Z" transform="translate(-1005.7 -91.445)" fill="#231f20"/>
      <path id="Path_765" data-name="Path 765" d="M1010.916,91.445l-.484,1.849-.491-1.849h-.818v2.707h.509v-2.13l.536,2.13h.525l.536-2.13v2.13h.508V91.445Z" transform="translate(-1006.626 -91.445)" fill="#231f20"/>
    </g>
    <g id="Group_1365" data-name="Group 1365" transform="translate(0 31.771)">
      <path id="Path_766" data-name="Path 766" d="M1024.18,146.261a2.509,2.509,0,0,0-1.84-.739h-.1c-4.51.143-11.39,2.088-12.268,4.315-.422,1.11,1.358,1.859,2.582,2.326l1.327.5c.029.822-4.652,2.265-7.32,2.892a5.8,5.8,0,0,1-2.259.073l-.484-.079a.276.276,0,0,0-.326.368l.163.338a2.3,2.3,0,0,0,2.267,1.166h.148c2.989-.1,10.579-1.58,11.385-3.572l.012-.041c.155-.61-.624-1.148-1.285-1.485l-.675-.328c-.506-.247-1.024-.472-1.545-.691a1.911,1.911,0,0,1-.514-.278c.7-.954,5.77-2.928,8.8-3.368a23.393,23.393,0,0,1-2.856,1.655.37.37,0,0,0-.3.344.508.508,0,0,0,.5.422c1.323-.041,4.974-1.6,5.118-2.316a1.542,1.542,0,0,0,.019-.225A1.889,1.889,0,0,0,1024.18,146.261Z" transform="translate(-927.809 -137.842)" fill="#231f20"/>
      <path id="Path_767" data-name="Path 767" d="M980.777,143.329a2.111,2.111,0,0,0-1.639-.738h-.089c-4.012.141-11.059,2.085-11.838,4.314a.951.951,0,0,0-.028.553c-2.893,1.587-7.475,4.04-10.086,4.786.038-.055.082-.117.134-.185a22.964,22.964,0,0,1,5.4-4.215.492.492,0,0,0,.065.007.18.18,0,0,0,.044,0,.33.33,0,0,0,.247-.168.519.519,0,0,0-.037-.546,3.4,3.4,0,0,0-2.371-1.367,1.251,1.251,0,0,0-.385.055,39.667,39.667,0,0,0-4.249,2.127c-.344.189-.625.344-.8.436a102.7,102.7,0,0,1-9.963,4.2,27.332,27.332,0,0,1,6.878-4.9,25.465,25.465,0,0,1,9-2.828c.155-.01.3-.017.436-.017a2.265,2.265,0,0,1,1.395.354.826.826,0,0,0,.786.185.536.536,0,0,0,.3-.841c-.77-1-3.061-1.086-3.855-1.086-.147,0-.3,0-.436.007a32.555,32.555,0,0,0-12.989,3.672,21.952,21.952,0,0,0-5.194,3.5,34.371,34.371,0,0,1-5.555,2.333,72.291,72.291,0,0,1,7.946-7.813c2.15-1.817,4.1-3.452,6.115-4.953.312-.22.652-.474,1.007-.735,1.7-1.258,3.806-2.82,5.115-2.82a1.2,1.2,0,0,1,.258.024.9.9,0,0,0,.244.038.419.419,0,0,0,.2-.045.366.366,0,0,0,.2-.326c0-.615-2.051-1.343-3.783-1.343-.154,0-.312.007-.463.017a4.814,4.814,0,0,0-1.718.54c-.041.017-.082.037-.127.058a23.376,23.376,0,0,0-3.885,2.487c-.443.337-.876.667-1.3,1-2.625,2.033-4.885,3.912-6.874,5.717a70.371,70.371,0,0,0-6.459,6.427l-2.113.516c-.567.141-1.1.268-1.536.378l2-2.144c.5-.581.708-.666.752-.68a.359.359,0,0,0,.148.031.337.337,0,0,0,.3-.165.468.468,0,0,0-.024-.488,4.021,4.021,0,0,0-2.6-1.233,1.22,1.22,0,0,0-.36.031,17.56,17.56,0,0,0-2.79,1.123c-.543.244-1.21.539-2.04.907-.907.409-3.312,1.453-6.022,2.4-.962.333-2.391.824-3.26,1.083a.2.2,0,0,1-.241-.124c-.44-1.292,3.085-3.841,6.277-5.273,3.463-1.519,7.867-2.731,10.282-2.776.151,0,.3,0,.433,0,.46.021,1.525.138,1.519.767a1.117,1.117,0,0,1-.351.635l-.023.031a.345.345,0,0,0-.114.344.36.36,0,0,0,.35.282.538.538,0,0,0,.176-.02.306.306,0,0,0,.12-.058c.481-.368,1.034-.866,1.041-1.453.014-1.614-2.831-1.917-4.053-1.972-.155-.007-.306-.01-.458-.014-3.94-.038-9.887,1.439-14.284,3.439-3.246,1.477-6.723,3.7-6.74,5.5a4.664,4.664,0,0,0,2.116,2.893,4.413,4.413,0,0,0,1.505.141c1.065-.028,3.934-1.093,6.6-2.175,2.814-1.161,5.431-2.4,5.978-2.673.11-.051.23-.1.347-.158-1.172,1.216-2.838,2.941-3.507,3.614-11.244,3.339-19.974,7.774-21.733,11.048a2.259,2.259,0,0,0-.336,1.175c.037,1.092,1.219,1.721,3.235,1.721.12,0,.245,0,.365-.007a11.074,11.074,0,0,0,1.6-.161c9.049-1.625,16.751-8.41,22.464-14.167l4.067-1.051a1.938,1.938,0,0,0-.347.924.756.756,0,0,0,.247.6,4.827,4.827,0,0,0,1.9,1.051,3.532,3.532,0,0,0,.941.137,2.891,2.891,0,0,0,.721-.089,28.419,28.419,0,0,0,5.27-2.3c0,.034,0,.072,0,.106.028.759,1.487,1.738,2.391,1.948a3.037,3.037,0,0,0,.491.069h.024c1.57-.055,7.087-2.686,10.317-4.336a7.659,7.659,0,0,0-.873,1.2c0,.01-.01.017-.013.028-.031.072-.066.144-.1.209a2.017,2.017,0,0,0-.275.893c.024.7,1.144,1.268,1.841,1.457a3.055,3.055,0,0,0,.835.137h.072c2.639-.093,9.045-3.817,12.9-6.2a7.99,7.99,0,0,0,1.673.9l1.182.495c.024.824-4.139,2.267-6.513,2.893a4.6,4.6,0,0,1-2.006.076l-.433-.082a.267.267,0,0,0-.288.371l.144.337a2.016,2.016,0,0,0,2.017,1.164h.13a26.064,26.064,0,0,0,7.966-1.865.014.014,0,0,1,.01,0,3.909,3.909,0,0,0,2.151-1.7c0-.014.007-.028.01-.038a.743.743,0,0,0-.072-.515,2.6,2.6,0,0,0-1.072-.972l-.6-.326c-.45-.247-.91-.474-1.374-.691a1.786,1.786,0,0,1-.46-.278c.625-.955,6.06-2.931,8.757-3.37a20.382,20.382,0,0,1-2.542,1.656.363.363,0,0,0-.265.344.471.471,0,0,0,.447.422c1.178-.041,4.425-1.6,4.556-2.316a1.681,1.681,0,0,0,.017-.223A2.026,2.026,0,0,0,980.777,143.329Zm-75.249,21.852a8.349,8.349,0,0,1-2.106.416c-.044,0-.085,0-.127,0-.481,0-.57-.107-.574-.107,0-.069.038-.3.622-.91,2.82-3.033,8.355-5.957,16.459-8.7C914.439,160.743,909.76,163.79,905.527,165.181Z" transform="translate(-899.759 -134.995)" fill="#231f20"/>
      <path id="Path_768" data-name="Path 768" d="M994.4,157.5c2.968-.093,10.17-3.815,14.5-6.2,0,0-.694-.872-.647-.7-3.251,1.587-8.4,4.039-11.338,4.786Z" transform="translate(-925.357 -139.209)" fill="#231f20"/>
    </g>
  </g>
</svg>
