<svg xmlns="http://www.w3.org/2000/svg" width="160.18" height="49.104" viewBox="0 0 160.18 49.104">
  <g id="Group_1395" data-name="Group 1395" opacity="1">
    <g id="Group_1394" data-name="Group 1394">
      <g id="Group_1392" data-name="Group 1392">
        <g id="Group_1391" data-name="Group 1391" transform="translate(51.113 9.423)">
          <g id="Group_1389" data-name="Group 1389">
            <path id="Path_824" data-name="Path 824" d="M1230.231,118.834a3.045,3.045,0,0,0-.72-1.012,3.929,3.929,0,0,0-1.021-.684,10.985,10.985,0,0,0-1.177-.483c-.392-.137-.784-.264-1.167-.383a6.26,6.26,0,0,1-1.021-.41,2.263,2.263,0,0,1-.72-.556,1.2,1.2,0,0,1-.274-.812,1.712,1.712,0,0,1,.137-.693,1.346,1.346,0,0,1,.4-.556,2.25,2.25,0,0,1,.675-.356,3.585,3.585,0,0,1,1.961.018,4.948,4.948,0,0,1,.757.328c.219.119.4.237.556.328a.824.824,0,0,0,.438.155.514.514,0,0,0,.319-.1.979.979,0,0,0,.246-.283l.638-1.213a5.434,5.434,0,0,0-1.76-1.076,6.631,6.631,0,0,0-2.252-.374,5.255,5.255,0,0,0-1.925.328,4.355,4.355,0,0,0-1.413.894,3.8,3.8,0,0,0-1.177,2.736,4.059,4.059,0,0,0,.273,1.587,3.376,3.376,0,0,0,.72,1.076,3.744,3.744,0,0,0,1.021.693,11.525,11.525,0,0,0,1.167.465c.392.119.784.237,1.158.347a4.773,4.773,0,0,1,1.021.4,2.184,2.184,0,0,1,.72.575,1.367,1.367,0,0,1,.273.885,1.873,1.873,0,0,1-.6,1.5,2.516,2.516,0,0,1-1.7.52,3.473,3.473,0,0,1-1.222-.192,5.844,5.844,0,0,1-.894-.438c-.255-.164-.474-.3-.656-.438a.94.94,0,0,0-.52-.192.706.706,0,0,0-.565.31l-.757,1.231a5.318,5.318,0,0,0,.912.748,7.419,7.419,0,0,0,1.1.575,6.858,6.858,0,0,0,1.231.365,6.779,6.779,0,0,0,1.3.128,5.658,5.658,0,0,0,2.034-.347,4.575,4.575,0,0,0,1.5-.958,4.073,4.073,0,0,0,.939-1.423,4.777,4.777,0,0,0,.319-1.751A3.5,3.5,0,0,0,1230.231,118.834Z" transform="translate(-1221.175 -110.672)" fill="#231f20"/>
            <path id="Path_825" data-name="Path 825" d="M1247.058,115.8a6.622,6.622,0,0,0-.657-1.705,6.354,6.354,0,0,0-1.04-1.414,6.088,6.088,0,0,0-1.386-1.076,7.358,7.358,0,0,0-1.7-.693,8.116,8.116,0,0,0-1.979-.237,7.37,7.37,0,0,0-2.855.529,6.266,6.266,0,0,0-2.207,1.477,6.457,6.457,0,0,0-1.423,2.234,7.98,7.98,0,0,0,0,5.618,6.454,6.454,0,0,0,3.63,3.712,7.992,7.992,0,0,0,5.718,0,6.393,6.393,0,0,0,2.2-1.477,6.687,6.687,0,0,0,1.423-2.234,7.843,7.843,0,0,0,.5-2.809A7.722,7.722,0,0,0,1247.058,115.8Zm-2.7,3.958a4.491,4.491,0,0,1-.876,1.532,3.859,3.859,0,0,1-1.368.958,4.767,4.767,0,0,1-1.815.328,4.816,4.816,0,0,1-1.824-.328,4.032,4.032,0,0,1-1.368-.958,4.218,4.218,0,0,1-.876-1.532,7.023,7.023,0,0,1,0-4.068,4.144,4.144,0,0,1,.876-1.532,3.818,3.818,0,0,1,1.368-.967,4.815,4.815,0,0,1,1.824-.337,4.767,4.767,0,0,1,1.815.337,3.663,3.663,0,0,1,1.368.967,4.407,4.407,0,0,1,.876,1.532,7.023,7.023,0,0,1,0,4.068Z" transform="translate(-1222.243 -110.672)" fill="#231f20"/>
            <path id="Path_826" data-name="Path 826" d="M1251.2,110.842v13.79h2.572v-13.79Z" transform="translate(-1223.818 -110.687)" fill="#231f20"/>
            <path id="Path_827" data-name="Path 827" d="M1260.068,122.516V110.842h-2.563v13.79h8.08v-2.116Z" transform="translate(-1224.372 -110.687)" fill="#231f20"/>
            <path id="Path_828" data-name="Path 828" d="M1277,118.834a3.044,3.044,0,0,0-.72-1.012,3.927,3.927,0,0,0-1.021-.684,11,11,0,0,0-1.177-.483q-.6-.205-1.177-.383a6.148,6.148,0,0,1-1.012-.41,2.306,2.306,0,0,1-.73-.556,1.241,1.241,0,0,1-.264-.812,1.874,1.874,0,0,1,.128-.693,1.452,1.452,0,0,1,.411-.556,2.141,2.141,0,0,1,.675-.356,3.14,3.14,0,0,1,.93-.128,3.1,3.1,0,0,1,1.021.146,5.08,5.08,0,0,1,.766.328c.219.119.4.237.556.328a.823.823,0,0,0,.429.155.561.561,0,0,0,.328-.1.845.845,0,0,0,.237-.283l.638-1.213a5.3,5.3,0,0,0-1.751-1.076,6.633,6.633,0,0,0-2.253-.374,5.305,5.305,0,0,0-1.933.328,4.312,4.312,0,0,0-1.4.894,3.8,3.8,0,0,0-1.177,2.736,4.061,4.061,0,0,0,.274,1.587,3.232,3.232,0,0,0,.721,1.076,3.74,3.74,0,0,0,1.021.693,10.729,10.729,0,0,0,1.167.465c.392.119.775.237,1.158.347a4.967,4.967,0,0,1,1.022.4,2.184,2.184,0,0,1,.72.575,1.367,1.367,0,0,1,.274.885,1.873,1.873,0,0,1-.6,1.5,2.516,2.516,0,0,1-1.7.52,3.491,3.491,0,0,1-1.231-.192,5.712,5.712,0,0,1-.885-.438c-.255-.164-.483-.3-.666-.438a.914.914,0,0,0-.511-.192.6.6,0,0,0-.328.091.713.713,0,0,0-.246.219l-.757,1.231a5.788,5.788,0,0,0,.921.748,7,7,0,0,0,1.1.575,6.765,6.765,0,0,0,1.222.365,6.85,6.85,0,0,0,1.3.128,5.623,5.623,0,0,0,2.034-.347,4.525,4.525,0,0,0,1.5-.958,4.078,4.078,0,0,0,.939-1.423,4.779,4.779,0,0,0,.31-1.751A3.506,3.506,0,0,0,1277,118.834Z" transform="translate(-1225.29 -110.672)" fill="#231f20"/>
            <path id="Path_829" data-name="Path 829" d="M1290.957,121.525a.5.5,0,0,0-.374-.155.472.472,0,0,0-.219.046,1.316,1.316,0,0,0-.2.137,4.156,4.156,0,0,1-.629.483,3.606,3.606,0,0,1-.684.319,3.864,3.864,0,0,1-.775.182,7.646,7.646,0,0,1-.958.055,4.2,4.2,0,0,1-1.632-.319,3.854,3.854,0,0,1-1.332-.958,4.7,4.7,0,0,1-.894-1.523,6.048,6.048,0,0,1-.328-2.07,6.18,6.18,0,0,1,.31-2.052,4.457,4.457,0,0,1,.857-1.532,3.5,3.5,0,0,1,1.322-.948,4.254,4.254,0,0,1,1.687-.337,5.1,5.1,0,0,1,.967.082,5.519,5.519,0,0,1,.73.2,3.829,3.829,0,0,1,.547.264,4.938,4.938,0,0,1,.42.264c.127.073.237.146.337.2a.617.617,0,0,0,.292.082.541.541,0,0,0,.328-.091.7.7,0,0,0,.2-.2l.857-1.195a6.359,6.359,0,0,0-1.988-1.3,6.826,6.826,0,0,0-2.681-.492,7.17,7.17,0,0,0-2.763.52,6.4,6.4,0,0,0-2.152,1.45,6.722,6.722,0,0,0-1.4,2.225,7.985,7.985,0,0,0-.5,2.855,8.283,8.283,0,0,0,.465,2.827,6.447,6.447,0,0,0,1.332,2.234,5.989,5.989,0,0,0,2.1,1.459,6.882,6.882,0,0,0,2.763.529,7,7,0,0,0,2.937-.556,5.46,5.46,0,0,0,2.07-1.587Z" transform="translate(-1226.378 -110.672)" fill="#231f20"/>
            <path id="Path_830" data-name="Path 830" d="M1302.769,110.842h-2.608l-5.436,13.79h2.006a.8.8,0,0,0,.547-.182.879.879,0,0,0,.292-.4l1.031-2.809h5.718l1.031,2.809a.957.957,0,0,0,.31.42.868.868,0,0,0,.547.164h1.979Zm-3.5,8.582,1.678-4.569c.082-.21.164-.456.255-.739s.173-.584.255-.912c.091.328.173.629.264.9s.173.52.265.73l1.678,4.587Z" transform="translate(-1227.647 -110.687)" fill="#231f20"/>
            <path id="Path_831" data-name="Path 831" d="M1321.086,113.459a3.525,3.525,0,0,0-.976-1.386,4.576,4.576,0,0,0-1.669-.912,8.084,8.084,0,0,0-2.4-.319h-4.478v13.79h2.563V119.78h1.915a7.282,7.282,0,0,0,2.353-.337,4.722,4.722,0,0,0,1.678-.93,3.88,3.88,0,0,0,1-1.441,4.965,4.965,0,0,0,.328-1.833A4.676,4.676,0,0,0,1321.086,113.459Zm-2.417,2.827a2.007,2.007,0,0,1-.52.8,2.292,2.292,0,0,1-.876.511,3.819,3.819,0,0,1-1.231.173h-1.915v-4.952h1.915a3.939,3.939,0,0,1,1.25.173,2.216,2.216,0,0,1,.866.474,2.022,2.022,0,0,1,.511.766,2.694,2.694,0,0,1,.173,1A2.944,2.944,0,0,1,1318.67,116.287Z" transform="translate(-1229.129 -110.687)" fill="#231f20"/>
            <path id="Path_832" data-name="Path 832" d="M1333.406,112.876v-2.034h-8.691v13.79h8.691V122.58h-6.12v-3.894h4.824v-1.979h-4.824v-3.83Z" transform="translate(-1230.286 -110.687)" fill="#231f20"/>
          </g>
          <g id="Group_1390" data-name="Group 1390" transform="translate(0 17.073)">
            <path id="Path_833" data-name="Path 833" d="M1229.638,137.026a2.968,2.968,0,0,0-.666-.948,3.814,3.814,0,0,0-.958-.638,9.486,9.486,0,0,0-1.094-.447c-.374-.128-.748-.255-1.1-.365a5.4,5.4,0,0,1-.948-.383,1.882,1.882,0,0,1-.675-.52,1.1,1.1,0,0,1-.255-.757,1.72,1.72,0,0,1,.128-.657,1.448,1.448,0,0,1,.374-.511,1.888,1.888,0,0,1,.629-.337,2.785,2.785,0,0,1,.875-.119,2.991,2.991,0,0,1,.958.137,4.366,4.366,0,0,1,.711.31c.2.119.374.219.52.31a.782.782,0,0,0,.41.137.481.481,0,0,0,.292-.082.7.7,0,0,0,.228-.274l.6-1.131a4.819,4.819,0,0,0-1.642-1,6.008,6.008,0,0,0-2.107-.356,4.87,4.87,0,0,0-1.806.31,4.143,4.143,0,0,0-1.313.83,3.557,3.557,0,0,0-1.1,2.563,3.918,3.918,0,0,0,.255,1.487,3.175,3.175,0,0,0,.675,1,3.618,3.618,0,0,0,.957.648,9.937,9.937,0,0,0,1.085.429c.365.119.73.228,1.094.337a4.663,4.663,0,0,1,.948.365,2.118,2.118,0,0,1,.675.538,1.287,1.287,0,0,1,.255.83,1.735,1.735,0,0,1-.565,1.4,2.329,2.329,0,0,1-1.587.492,3.008,3.008,0,0,1-1.14-.192,4.792,4.792,0,0,1-.839-.4c-.237-.146-.447-.283-.611-.4a.841.841,0,0,0-.483-.192.558.558,0,0,0-.31.091.717.717,0,0,0-.228.21l-.7,1.149a4.659,4.659,0,0,0,.857.693,6.478,6.478,0,0,0,1.031.538,6.592,6.592,0,0,0,2.353.465,5.155,5.155,0,0,0,1.906-.328,4.117,4.117,0,0,0,1.4-.894,3.664,3.664,0,0,0,.866-1.322,4.453,4.453,0,0,0,.31-1.642A3.237,3.237,0,0,0,1229.638,137.026Z" transform="translate(-1221.175 -129.392)" fill="#231f20"/>
            <path id="Path_834" data-name="Path 834" d="M1245.634,134.18a6.657,6.657,0,0,0-.611-1.587,6.046,6.046,0,0,0-.976-1.322,6.173,6.173,0,0,0-1.3-1.012,6.488,6.488,0,0,0-1.587-.638,7.52,7.52,0,0,0-4.514.264,6,6,0,0,0-2.061,1.386,6.065,6.065,0,0,0-1.331,2.089,7.511,7.511,0,0,0,0,5.253,6.065,6.065,0,0,0,1.331,2.089,5.975,5.975,0,0,0,2.061,1.377,7.368,7.368,0,0,0,5.344,0,5.89,5.89,0,0,0,2.061-1.377,6.2,6.2,0,0,0,1.331-2.089,7.226,7.226,0,0,0,.465-2.627A7.776,7.776,0,0,0,1245.634,134.18Zm-2.526,3.712a4.176,4.176,0,0,1-.812,1.423,3.442,3.442,0,0,1-1.286.894,4.667,4.667,0,0,1-3.393,0,3.373,3.373,0,0,1-1.286-.894,4.049,4.049,0,0,1-.821-1.423,6.564,6.564,0,0,1,0-3.812,4.01,4.01,0,0,1,.821-1.432,3.5,3.5,0,0,1,1.286-.9,4.795,4.795,0,0,1,3.393,0,3.571,3.571,0,0,1,1.286.9,4.133,4.133,0,0,1,.812,1.432,6.567,6.567,0,0,1,0,3.812Z" transform="translate(-1222.196 -129.392)" fill="#231f20"/>
            <path id="Path_835" data-name="Path 835" d="M1252.294,140.469V129.552h-2.4v12.9h7.56v-1.979Z" transform="translate(-1223.702 -129.406)" fill="#231f20"/>
            <path id="Path_836" data-name="Path 836" d="M1268.054,129.552v7.725a4.034,4.034,0,0,1-.21,1.332,2.731,2.731,0,0,1-.574,1.021,2.48,2.48,0,0,1-.921.648,3.133,3.133,0,0,1-1.24.237,3.179,3.179,0,0,1-1.25-.237,2.592,2.592,0,0,1-.93-.648,3.049,3.049,0,0,1-.575-1.031,4.043,4.043,0,0,1-.2-1.332v-7.716h-2.4v7.725a5.941,5.941,0,0,0,.365,2.125,4.835,4.835,0,0,0,1.067,1.687,4.76,4.76,0,0,0,1.678,1.1,6,6,0,0,0,2.244.4,5.935,5.935,0,0,0,2.225-.4,4.883,4.883,0,0,0,1.687-1.1,4.949,4.949,0,0,0,1.058-1.687,5.943,5.943,0,0,0,.365-2.125v-7.725Z" transform="translate(-1224.57 -129.406)" fill="#231f20"/>
            <path id="Path_837" data-name="Path 837" d="M1273.865,129.552v1.97h3.885v10.926h2.408V131.522h3.885v-1.97Z" transform="translate(-1225.811 -129.406)" fill="#231f20"/>
            <path id="Path_838" data-name="Path 838" d="M1287.585,129.552v12.9h2.408v-12.9Z" transform="translate(-1227.019 -129.406)" fill="#231f20"/>
            <path id="Path_839" data-name="Path 839" d="M1305.994,134.18a7.075,7.075,0,0,0-.611-1.587,6.05,6.05,0,0,0-.976-1.322,6.173,6.173,0,0,0-1.3-1.012,6.489,6.489,0,0,0-1.587-.638,7.52,7.52,0,0,0-4.514.264,6,6,0,0,0-2.061,1.386,6.066,6.066,0,0,0-1.331,2.089,7.511,7.511,0,0,0,0,5.253,6.067,6.067,0,0,0,1.331,2.089,5.976,5.976,0,0,0,2.061,1.377,7.369,7.369,0,0,0,5.344,0,5.891,5.891,0,0,0,2.061-1.377,6.043,6.043,0,0,0,1.322-2.089,7.04,7.04,0,0,0,.474-2.627A7.776,7.776,0,0,0,1305.994,134.18Zm-2.526,3.712a4.178,4.178,0,0,1-.812,1.423,3.442,3.442,0,0,1-1.286.894,4.667,4.667,0,0,1-3.393,0,3.3,3.3,0,0,1-1.286-.894,4.049,4.049,0,0,1-.821-1.423,6.564,6.564,0,0,1,0-3.812,4.01,4.01,0,0,1,.821-1.432,3.423,3.423,0,0,1,1.286-.9,4.795,4.795,0,0,1,3.393,0,3.571,3.571,0,0,1,1.286.9,4.135,4.135,0,0,1,.812,1.432,6.57,6.57,0,0,1,0,3.812Z" transform="translate(-1227.507 -129.392)" fill="#231f20"/>
            <path id="Path_840" data-name="Path 840" d="M1319.019,129.552V137.4c0,.164.009.356.018.556s.027.41.046.62l-6.758-8.637a2.208,2.208,0,0,0-.182-.2.618.618,0,0,0-.164-.119.583.583,0,0,0-.2-.055,2.231,2.231,0,0,0-.264-.009h-1.259v12.9h2.116v-7.916c0-.337-.018-.7-.046-1.094l6.731,8.6a1.188,1.188,0,0,0,.374.319,1.023,1.023,0,0,0,.474.091h1.231v-12.9Z" transform="translate(-1229.014 -129.406)" fill="#231f20"/>
            <path id="Path_841" data-name="Path 841" d="M1333.158,137.026a3.136,3.136,0,0,0-.675-.948,3.817,3.817,0,0,0-.958-.638,9.484,9.484,0,0,0-1.094-.447c-.374-.128-.748-.255-1.094-.365a5.514,5.514,0,0,1-.958-.383,1.962,1.962,0,0,1-.675-.52,1.149,1.149,0,0,1-.256-.757,1.72,1.72,0,0,1,.128-.657,1.449,1.449,0,0,1,.374-.511,1.887,1.887,0,0,1,.629-.337,2.866,2.866,0,0,1,.875-.119,2.953,2.953,0,0,1,.958.137,4.364,4.364,0,0,1,.711.31c.2.119.374.219.52.31a.783.783,0,0,0,.41.137.529.529,0,0,0,.3-.082.787.787,0,0,0,.228-.274l.593-1.131a4.733,4.733,0,0,0-1.642-1,6.009,6.009,0,0,0-2.107-.356,4.785,4.785,0,0,0-1.8.31,4.09,4.09,0,0,0-1.323.83,3.648,3.648,0,0,0-.821,1.186,3.6,3.6,0,0,0-.273,1.377,3.746,3.746,0,0,0,.255,1.487,3.019,3.019,0,0,0,.666,1,3.618,3.618,0,0,0,.958.648,9.917,9.917,0,0,0,1.085.429c.374.119.738.228,1.094.337a4.279,4.279,0,0,1,.948.365,2.118,2.118,0,0,1,.675.538,1.287,1.287,0,0,1,.255.83,1.736,1.736,0,0,1-.565,1.4,2.329,2.329,0,0,1-1.587.492,3.009,3.009,0,0,1-1.14-.192,4.788,4.788,0,0,1-.839-.4c-.237-.146-.438-.283-.611-.4a.842.842,0,0,0-.483-.192.509.509,0,0,0-.3.091.658.658,0,0,0-.237.21l-.7,1.149a4.991,4.991,0,0,0,.857.693,6.5,6.5,0,0,0,1.031.538,6.593,6.593,0,0,0,2.353.465,5.154,5.154,0,0,0,1.906-.328,4.117,4.117,0,0,0,1.4-.894,3.813,3.813,0,0,0,.876-1.322,4.446,4.446,0,0,0,.292-1.642A3.4,3.4,0,0,0,1333.158,137.026Z" transform="translate(-1230.283 -129.392)" fill="#231f20"/>
          </g>
        </g>
        <path id="Path_842" data-name="Path 842" d="M1210.188,124.565a13.212,13.212,0,0,0-11.127-18.541,13.185,13.185,0,0,0-11.017-5.682,13.528,13.528,0,0,0-3.338.474,13.155,13.155,0,0,0-7.3,5.144,13.4,13.4,0,0,0-2.59.447,13.205,13.205,0,0,0-8.3,18.632,13.215,13.215,0,0,0,11.163,18.733,13.188,13.188,0,0,0,21.724-.082,13.2,13.2,0,0,0,10.78-19.125Zm-34.547,3.84a11.138,11.138,0,0,0,.374,1.14,10.479,10.479,0,0,1-6.585-4.551,10.667,10.667,0,0,1,6.576-4.77A13.13,13.13,0,0,0,1175.641,128.4Zm-6.585-14.528a10.612,10.612,0,0,1,6.858-5.116,13.083,13.083,0,0,0-.429,8.308c.064.21.137.41.21.611-.237.055-.474.109-.711.173a13.1,13.1,0,0,0-6.8,4.514A10.638,10.638,0,0,1,1169.056,113.876Zm4.186,25.992a10.661,10.661,0,0,1-4.989-12.2,13.1,13.1,0,0,0,7.707,4.46,13.152,13.152,0,0,0-.173,7.624c.119.429.255.839.411,1.249A10.738,10.738,0,0,1,1173.242,139.868Zm24.387-31.318a10.651,10.651,0,0,1,.866,7.852,13.326,13.326,0,0,0-3.612-3,13.058,13.058,0,0,0-4.478-1.56A10.7,10.7,0,0,1,1197.63,108.55Zm.529,21.259a9.489,9.489,0,0,1,.593,1.076c-.155.009-.31.027-.465.027-.255,0-.511-.027-.757-.046a11.606,11.606,0,0,1-8.071-4.04,11.267,11.267,0,0,1,.6,3.657,11.472,11.472,0,0,1-1.085,4.87,12.2,12.2,0,0,1-.6,1.131,10.369,10.369,0,0,1-.611-1.131,11.444,11.444,0,0,1-.483-8.527,11.6,11.6,0,0,1-8.144,4.049c-.228.009-.447.036-.684.036-.182,0-.365-.027-.547-.036a10.169,10.169,0,0,1,.593-1.067,11.653,11.653,0,0,1,6.357-4.934,11.7,11.7,0,0,1-6.275-4.9c-.21-.347-.41-.711-.593-1.085.155,0,.31-.018.465-.018.265,0,.511.018.766.036a11.578,11.578,0,0,1,8.062,4.049,11.445,11.445,0,0,1,.483-8.527,10.5,10.5,0,0,1,.611-1.14,12.364,12.364,0,0,1,.6,1.14,11.446,11.446,0,0,1,.483,8.527,11.569,11.569,0,0,1,8.153-4.049c.228-.018.447-.036.675-.036.182,0,.365.018.547.027a10.879,10.879,0,0,1-.584,1.067,11.623,11.623,0,0,1-6.366,4.934A11.644,11.644,0,0,1,1198.158,129.809Zm-12.777-26.539a10.556,10.556,0,0,1,8.1,1,10.115,10.115,0,0,1,2.444,1.906c-.438.073-.885.164-1.323.283a13.194,13.194,0,0,0-6.348,3.958,13.2,13.2,0,0,0-7.679-4.3A10.579,10.579,0,0,1,1185.381,103.269Zm-6.548,5.226a10.386,10.386,0,0,1,4.761,1.359,10.611,10.611,0,0,1,2.563,2.025,13.242,13.242,0,0,0-8.126,4.8c-.028-.091-.064-.182-.091-.283A10.619,10.619,0,0,1,1178.833,108.5Zm.265,32.741a11.159,11.159,0,0,1-.867-2.161,10.644,10.644,0,0,1,.019-5.709,13.265,13.265,0,0,0,3.6,3.019,13.059,13.059,0,0,0,4.4,1.541A10.735,10.735,0,0,1,1179.1,141.236Zm12.266,5.281a10.971,10.971,0,0,1-2.7.392,10.729,10.729,0,0,1-5.408-1.4,10.562,10.562,0,0,1-2.462-1.915,11.986,11.986,0,0,0,1.231-.283,13.043,13.043,0,0,0,6.466-4.077,13.27,13.27,0,0,0,7.779,4.314A10.662,10.662,0,0,1,1191.364,146.517Zm6.594-5.344a10.639,10.639,0,0,1-7.26-3.283,13.177,13.177,0,0,0,8.007-4.779A10.626,10.626,0,0,1,1197.958,141.172Zm5.426-31.254a10.625,10.625,0,0,1,5.043,12,13.217,13.217,0,0,0-3.5-2.891,12.968,12.968,0,0,0-4.1-1.5,13.1,13.1,0,0,0,.128-7.5,10.634,10.634,0,0,0-.4-1.222A10.514,10.514,0,0,1,1203.384,109.918Zm-2.718,10.169a10.405,10.405,0,0,1,3,1.149,10.644,10.644,0,0,1,3.63,3.393,10.6,10.6,0,0,1-6.339,4.852,1.919,1.919,0,0,1-.219.055A13.227,13.227,0,0,0,1200.667,120.087Zm7.022,15.7a10.655,10.655,0,0,1-6.813,5.107,13.067,13.067,0,0,0,.374-8.181c-.055-.21-.137-.42-.21-.629.2-.046.4-.1.6-.155a13.065,13.065,0,0,0,6.913-4.651A10.645,10.645,0,0,1,1207.689,135.782Z" transform="translate(-1165.13 -100.34)" fill="#231f20"/>
      </g>
      <g id="Group_1393" data-name="Group 1393" transform="translate(156.113 7.58)">
        <path id="Path_843" data-name="Path 843" d="M1336.305,108.652v.356h.638v1.8h.438v-1.8h.639v-.356Z" transform="translate(-1336.305 -108.652)" fill="#231f20"/>
        <path id="Path_844" data-name="Path 844" d="M1339.917,108.652l-.392,1.468-.383-1.468h-.657V110.8h.4v-1.7l.429,1.7h.42l.428-1.7v1.7h.4v-2.152Z" transform="translate(-1336.497 -108.652)" fill="#231f20"/>
      </g>
    </g>
  </g>
</svg>
