<svg xmlns="http://www.w3.org/2000/svg" width="55.917" height="55.914" viewBox="0 0 55.917 55.914">
  <g id="Group_1381" data-name="Group 1381" opacity="1">
    <path id="Path_790" data-name="Path 790" d="M424.37,161.642a2.25,2.25,0,0,1,1.077.283,2.01,2.01,0,0,1,.819.811,2.2,2.2,0,0,1,0,2.187,2.038,2.038,0,0,1-.81.813,2.205,2.205,0,0,1-2.18,0,2.048,2.048,0,0,1-.812-.813,2.186,2.186,0,0,1,0-2.187,2.021,2.021,0,0,1,.82-.811,2.253,2.253,0,0,1,1.078-.283m0,.363a1.869,1.869,0,0,0-.9.236,1.7,1.7,0,0,0-.684.676,1.819,1.819,0,0,0,0,1.824,1.712,1.712,0,0,0,.678.676,1.827,1.827,0,0,0,1.818,0,1.7,1.7,0,0,0,.676-.676,1.839,1.839,0,0,0,.241-.908,1.858,1.858,0,0,0-.245-.916,1.687,1.687,0,0,0-.684-.676,1.867,1.867,0,0,0-.9-.236m-.961,3.04v-2.358h.81a1.974,1.974,0,0,1,.6.066.581.581,0,0,1,.3.228.6.6,0,0,1,.11.346.625.625,0,0,1-.185.449.726.726,0,0,1-.489.215.652.652,0,0,1,.2.125,2.734,2.734,0,0,1,.349.468l.287.462h-.465l-.209-.372a1.9,1.9,0,0,0-.4-.549.49.49,0,0,0-.3-.081h-.223v1Zm.38-1.327h.462a.742.742,0,0,0,.451-.1.321.321,0,0,0,.12-.262.316.316,0,0,0-.058-.187.344.344,0,0,0-.161-.123,1.2,1.2,0,0,0-.382-.041h-.432Z" transform="translate(-370.643 -110.111)" fill="#231f20"/>
    <path id="Path_791" data-name="Path 791" d="M388.335,132.413c.009.232.015.248.073.217s.064-.019.077.076c.007.061.015.082.018.047s.023-.055.052-.045a1.439,1.439,0,0,0-.2-.518c-.015-.015-.023.085-.016.223" transform="translate(-361.489 -102.145)" fill="#231f20"/>
    <path id="Path_792" data-name="Path 792" d="M388.66,133.555l.021.158a.97.97,0,0,0,.071.261c.061.123.069.125.087.027a.607.607,0,0,0-.083-.261Z" transform="translate(-361.577 -102.514)" fill="#231f20"/>
    <path id="Path_793" data-name="Path 793" d="M379.494,91.006a27.957,27.957,0,1,0,27.958,27.956,27.958,27.958,0,0,0-27.958-27.956m19.769,14.761-.835,1-1.93-1.9-1.126,1.086,1.829,1.769-.915,1.025-1.819-1.759-1.317,1.266,2,1.869-.964,1-3.055-2.885,5.085-5.386Zm-2.334,12.5-.332-.337.819-.91h.527v3.392h-.623v-2.669Zm-1.764-.482v1.8a.869.869,0,0,1-1.738,0v-1.8a.869.869,0,1,1,1.738,0m-3.8-.087c-.1-.152-.353-.1-.692.167l-.347-.518a1.033,1.033,0,0,1,1.563-.029c.433.506-.024,1.4-.334,1.891a7.554,7.554,0,0,1-.444.621h.99v.588h-1.733v-.5l.364-.568c.22-.344.9-1.261.634-1.655M388.73,99.682a3.125,3.125,0,0,1,1.625-.314,4.486,4.486,0,0,1,2.27.873,4.9,4.9,0,0,1,1.011,1.045l-1.106.854a4.726,4.726,0,0,0-.374-.468,2.652,2.652,0,0,0-1.393-.9,1.635,1.635,0,0,0-1.549.484,4.475,4.475,0,0,0-1.207,2.2c-.246,1.368.786,1.887,1.907,2.164a5.632,5.632,0,0,0,.829.14q-.327.623-.654,1.247a8,8,0,0,1-.987-.255c-1.318-.437-2.689-1.328-2.767-2.843a5.112,5.112,0,0,1,2.4-4.224m-11.27-3.243h2l3.03,5.649V96.625h1.663l-.321,7.388-2.02.02-3.095-5.774-.131,5.5h-1.407Zm-16.569,8.044,5.086,3.337-2.322-5.6,1.256-.975,2.754,7.272-1.377,1.1-6.564-4.117Zm6.04,15.432a.44.44,0,1,1-.439-.439.44.44,0,0,1,.439.439m-3.792-2.273v-.553h1.687v.553h-.549v2.713h-.589v-2.713Zm-1.881,1.866c-.107-.464-.628-.529-.822-1.054a1.408,1.408,0,0,1,.1-1.14c.314-.557.869-.461,1.3-.093l-.2.538c-.469-.243-.739-.129-.67.215.116.587.595.578.845,1.094a1,1,0,0,1-.516,1.365c-1.084.163-1.037-.314-1-.789.514.354,1.049.252.96-.136m-3.56-2.419h1.358v.495h-.768v.891h.768v.5h-.768v.891h.768v.495H357.7Zm2.871,16.042.915-.925q-.411-.417-.824-.834l.824-.754,1.689,1.789-2.3,2.261c-2.416-1.385-3.047-2.761-2.558-4.131a3.982,3.982,0,0,1,2.553-2.426c1.463-.383,2.987.452,4.216,2.507l-1.206.522c-.6-1.458-1.389-1.992-2.334-1.77a2.8,2.8,0,0,0-2.049,1.917c-.115.624.2,1.239,1.077,1.843m7.477,5.026-.584.96-3.351-1.9,3.065-5.368,1.2.7-2.532,4.408ZM369.037,99l1.678-.748,5.492,5.668-1.542.713-1.256-1.408-2.433,1.072.2,1.858-1.6.6Zm8.191,41.212a2.389,2.389,0,0,1-1.4.968,3.536,3.536,0,0,1-3.036-.568,2.508,2.508,0,0,1-.909-1.864,4.348,4.348,0,0,1,.8-2.936,2.321,2.321,0,0,1,1.471-.833,3.818,3.818,0,0,1,3,.8,2.67,2.67,0,0,1,.722,1.989,4.409,4.409,0,0,1-.652,2.44m8.908-.217c-.524.87-1.414.935-2.309,1.129l-1.663.361-1.266-6.057,1.216-.28c1.01-.231,2.024-.595,2.975.055.724.495.929,1.412-.111,2.3a1.6,1.6,0,0,1,1.158,2.5m1.778-20.706a2.5,2.5,0,0,0-.779.6c.01.048-.2.225-.34.29-.059.027-.085.06-.074.095.025.082-.015.121-.26.266-.217.127-.224.135-.157.179l.07.047-.07.09a.784.784,0,0,1-.272.168c-.182.071-.258.128-.169.128.056,0,.038.121-.026.179a1.754,1.754,0,0,1-.425.2c-.063.023-.063.023,0,.069s.062.05-.016.132a2.192,2.192,0,0,1-.619.278l-.05.01c-.014,0,.01.035.055.071.074.062.076.071.027.146s-.114.094-.294.135a2.644,2.644,0,0,1-.294.054c-.044,0-.043.01.007.065s.054.069,0,.152-.2.144-.514.206c-.088.017-.107.034-.091.085.034.109-.088.185-.4.25a.687.687,0,0,0-.288.1.322.322,0,0,1-.019.109c-.02.062-.072.082-.316.125-.16.028-.344.056-.409.061-.115.009-.238.088-.212.135.007.013-.053.042-.131.062-.314.084-1.038.308-1.357.42l-.336.12.488-.018c.535-.021.712,0,.684.069-.014.036.006.039.1.011a1.265,1.265,0,0,1,.36-.01c.229.02.245.026.228.093s0,.072.174.075a1.574,1.574,0,0,1,.336.043c.126.036.139.048.109.1-.047.09-.044.1.031.1a1.165,1.165,0,0,1,.255.069c.189.071.263.15.187.2-.026.015.031.061.155.123.15.075.2.116.2.174a.2.2,0,0,0,.085.133,1.844,1.844,0,0,1,.147.116c.034.032.227.185.427.338.337.258.428.349.387.389a1.934,1.934,0,0,1-.363-.119,2.831,2.831,0,0,0-.886-.258,1.3,1.3,0,0,1-.526-.179c-.012-.006-.031.028-.044.076-.026.1-.079.095-.318-.043-.121-.071-.158-.079-.211-.047-.091.058-.125.05-.4-.081-.215-.1-.26-.114-.325-.079s-.115.021-.387-.116-.315-.15-.339-.107a.1.1,0,0,1-.071.052,7.621,7.621,0,0,1-.974-.517.936.936,0,0,0-.244-.123,6.98,6.98,0,0,0,.112,2.249c.023.148.072.459-.093.318a14.7,14.7,0,0,1-.239-2.092c-.024-.674-.054-.57-.29-.6a1.445,1.445,0,0,0-.567.139,7.273,7.273,0,0,1-1.718.471.949.949,0,0,0-.354.056c-.2.093-.321.106-.384.044s-.071-.052-.271,0c-.341.085-.452.063-.427-.083.007-.045-.04-.053-.313-.054s-.333-.011-.4-.074a.308.308,0,0,0-.24-.071.339.339,0,0,1-.228-.06c-.059-.052-.142-.058-.735-.055a4.172,4.172,0,0,1-.653-.022,2.722,2.722,0,0,1,.93-.4.109.109,0,0,0,.087-.047.238.238,0,0,1,.145-.07c.063-.011.181-.035.26-.052a.719.719,0,0,1,.185-.024c.023.006.04-.018.037-.05,0-.051.027-.06.212-.06s.214-.005.214-.072.011-.071.231-.052l.231.023-.017-.089-.016-.087.18.026a1.546,1.546,0,0,1,.262.054c.065.025.075.021.059-.022a.054.054,0,0,1,.028-.072,1.208,1.208,0,0,1,.43.073c.045.018.06.006.06-.048s.01-.071.025-.07a3.494,3.494,0,0,1,.576.165c.072.039.077.035.066-.037-.006-.042,0-.076.023-.074a2.258,2.258,0,0,1,.581.133c.067.044.075.043.075-.006,0-.067.079-.055.583.086.189.053.4.105.461.117.108.019.1.012-.067-.077-.1-.053-.481-.214-.842-.357-.755-.3-.89-.365-.989-.471a1.384,1.384,0,0,0-.366-.187,1.54,1.54,0,0,1-.3-.131c0-.086-.122-.144-.4-.2a.887.887,0,0,1-.382-.134c-.067-.067-.067-.072-.01-.136.072-.081.077-.078-.376-.239-.326-.115-.444-.214-.331-.276.092-.051.062-.081-.123-.124-.4-.093-.587-.255-.425-.379.067-.051.07-.061.02-.061a2,2,0,0,1-.589-.295c-.033-.044-.031-.066.013-.116s.051-.062-.008-.082c-.361-.124-.55-.277-.426-.347.074-.041.059-.055-.2-.186s-.312-.2-.222-.271c.055-.041.044-.053-.134-.134a1.375,1.375,0,0,1-.254-.143c-.057-.052-.057-.057.012-.105s.071-.051-.042-.11c-.157-.081-.394-.29-.388-.342a3.491,3.491,0,0,0-.695-.661,1.167,1.167,0,0,1-.227-.209c0-.036.02-.028.623.239a4.3,4.3,0,0,0,.555.215.628.628,0,0,1,.312.146c.053.047.059.047.059,0,0-.031.016-.056.035-.056a1.376,1.376,0,0,1,.448.249c.088.088.123.082.123-.019,0-.034.02-.062.044-.062a2.268,2.268,0,0,1,.535.385c.055.069.055.069.1-.024.023-.05.056-.092.073-.092a2.721,2.721,0,0,1,.549.51c.031.1.074.074.117-.055.021-.064.053-.117.068-.117a1.65,1.65,0,0,1,.379.412l.093.139.04-.107c.022-.058.053-.107.069-.107a1.358,1.358,0,0,1,.347.4l.071.131.072-.071c.039-.04.078-.066.086-.058.036.039.388.541.406.579s.027.03.037.009c.069-.136.083-.136.187-.018a1.647,1.647,0,0,1,.187.281c.079.154.088.16.132.1s.052-.057.082-.008c.017.03.093.136.169.236a1.167,1.167,0,0,1,.155.257c.023.089.042.095.093.026.032-.042.066-.015.206.169a3.3,3.3,0,0,1,.366.6c.012.03.026.028.052-.009.046-.065.074-.036.3.3a6.664,6.664,0,0,0,.826.911c.178.167-.409-.695-.745-1.094a2.553,2.553,0,0,1-.286-.392,1.446,1.446,0,0,0-.3-.315c-.147-.124-.26-.238-.25-.254a.037.037,0,0,0-.017-.049c-.052-.032-.041-.085.017-.085.027,0,.05-.005.05-.012s-.12-.131-.267-.278c-.268-.267-.361-.417-.257-.417s.056-.055-.168-.252a1.569,1.569,0,0,1-.269-.288c-.046-.09-.044-.1.023-.119s.047-.045-.18-.262c-.3-.282-.357-.374-.276-.419.047-.026.031-.054-.1-.179-.089-.082-.171-.156-.185-.165a.444.444,0,0,1-.1-.2c0-.018.039-.042.086-.055l.088-.022-.138-.108c-.226-.179-.339-.393-.206-.393.039,0,.069-.007.069-.015a1.728,1.728,0,0,0-.182-.193c-.225-.223-.26-.314-.133-.347l.09-.023-.171-.174a2.213,2.213,0,0,1-.24-.292l-.071-.118.117-.034.117-.034-.179-.185c-.257-.265-.333-.438-.193-.438s.174-.034.089-.147a1.753,1.753,0,0,1-.289-.58c0-.067.018-.082.1-.082h.094l-.127-.256a1.224,1.224,0,0,1-.129-.354c0-.089.008-.1.088-.076.048.012.081.009.074-.008-.207-.429-.232-.519-.145-.519.063,0,.063.007-.017-.151-.072-.142-.089-.274-.034-.292a4.933,4.933,0,0,0-.272-1.077,1.888,1.888,0,0,1-.158-.54,1.329,1.329,0,0,1,.261.4,7.1,7.1,0,0,0,.427.735,1.278,1.278,0,0,1,.146.28c0,.031.023.041.061.028s.076.011.119.1a.593.593,0,0,1,.057.185c0,.076.035.085.093.027.03-.029.055,0,.108.121a.854.854,0,0,1,.068.242c0,.08,0,.08.085.027s.084-.052.119.039a1.484,1.484,0,0,1,.056.24c.019.141.022.144.083.089s.066-.053.112.007a.807.807,0,0,1,.117.393c0,.1.023.112.117.042a.248.248,0,0,1,.092-.05,1.161,1.161,0,0,1,.134.514c.006.174.014.181.11.109a.268.268,0,0,1,.088-.05,1.429,1.429,0,0,1,.1.494c0,.124.045.142.14.058.067-.061.065-.066.127.173a1.183,1.183,0,0,1,.036.261v.128l.088-.058c.074-.048.092-.05.117-.009a2.15,2.15,0,0,1,.12.552l.022.183.111-.085.111-.085.036.129a3.32,3.32,0,0,1,.057.4l.022.274.095-.055c.051-.029.1-.047.111-.037a2.625,2.625,0,0,1,.061.379c.031.268.054.357.085.344s.064-.026.09-.035c.068-.027.09.059.112.43l.02.329.078-.05c.042-.028.085-.039.093-.026a4.336,4.336,0,0,1,.063.69c0,.123.059.176.11.092a.091.091,0,0,1,.069-.034c.036,0,.049.044.049.169,0,.093.015.169.034.169s.034-.032.034-.071c0-.058.014-.067.085-.05.046.012.084.015.084.007s-.053-.126-.118-.261c-.137-.286-.156-.451-.05-.423.037.009.068.009.068,0s-.052-.125-.115-.258a2.213,2.213,0,0,1-.138-.351c-.021-.1-.015-.109.064-.109a.245.245,0,0,0,.087-.008c0-.006-.054-.138-.117-.3a1.565,1.565,0,0,1-.117-.4c0-.108,0-.112.1-.089.058.012.1.01.091-.006-.29-.592-.333-.824-.142-.751a.227.227,0,0,0,.1.024,1.06,1.06,0,0,0-.093-.22,1.319,1.319,0,0,1-.12-.379l-.015-.167.107.037c.14.049.154.028.072-.112a1.719,1.719,0,0,1-.2-.624c0-.112,0-.115.107-.092s.1.017.079-.039a2.244,2.244,0,0,1-.172-.57c.012-.031.054-.039.134-.025l.117.018-.052-.147a1.806,1.806,0,0,1-.07-.363c-.015-.176-.009-.213.028-.2.183.069.21.07.183.005a1.8,1.8,0,0,1-.118-.527v-.131l.12.023c.115.021.119.019.08-.053a1.382,1.382,0,0,1-.058-.36l-.018-.287.092.024c.085.021.09.017.064-.054a1.154,1.154,0,0,1-.028-.279c0-.182.007-.2.068-.2s.067-.009.055-.264-.008-.269.05-.251.061,0,.051-.17a.4.4,0,0,1,.021-.209,5.432,5.432,0,0,0,.112-1.218,3.438,3.438,0,0,1,.028-.5l.024-.085.022.1c.031.147.115.753.16,1.162a2.522,2.522,0,0,0,.085.46.75.75,0,0,1,.047.263c0,.145.005.155.071.135s.07-.012.059.166c-.009.134,0,.185.028.174.056-.021.078.06.078.285,0,.169.008.2.055.178a.072.072,0,0,1,.083.026.724.724,0,0,1,0,.417c-.034.087-.031.088.088.064l.123-.022-.016.316a2.289,2.289,0,0,1-.042.374c-.022.05-.007.056.1.05l.13-.008-.005.169a1.266,1.266,0,0,1-.055.313l-.05.146.1-.01c.155-.016.156.092.005.488-.02.047-.007.053.082.035s.1-.016.1.093a1.077,1.077,0,0,1-.081.31l-.081.2.12-.023.12-.022-.022.191a2.432,2.432,0,0,1-.173.6c-.024.056-.015.06.117.038l.143-.025-.024.113a5.558,5.558,0,0,1-.2.6c-.019.042-.005.05.079.037s.1,0,.1.036a3.2,3.2,0,0,1-.19.606l-.047.093h.121c.116,0,.12,0,.1.1s-.154.458-.236.653c-.02.049-.007.059.08.059.058,0,.105.016.105.037a2.58,2.58,0,0,1-.187.614c-.046.093-.082.175-.082.18s.039.01.088.01c.082,0,.086.008.066.12a3.864,3.864,0,0,1-.153.441l-.129.321.081-.015c.044-.009.081,0,.081.013a5.765,5.765,0,0,1-.269.75c-.02.019-.014.045.018.069s.04.069,0,.288c-.028.139-.09.374-.136.522a2.54,2.54,0,0,0-.1.539l-.016.268.066-.135a6.989,6.989,0,0,0,.444-1.195c.125-.488.185-.659.215-.61.045.072.081.036.1-.105s.074-.365.155-.676l.034-.127.09.072.091.071.022-.155a4.157,4.157,0,0,1,.13-.482l.12-.374c.01-.033.038-.026.107.028l.093.074.02-.181a3.1,3.1,0,0,1,.222-.736.257.257,0,0,1,.071.055c.05.052.058.039.1-.171.051-.275.107-.455.144-.455a.137.137,0,0,1,.069.05c.068.083.1.059.1-.075a1.814,1.814,0,0,1,.114-.538c.011-.012.056.012.1.053a.358.358,0,0,0,.1.072c.012,0,.031-.064.044-.143a2.985,2.985,0,0,1,.2-.592c.008-.009.046.012.085.047.085.077.117.041.148-.171a.585.585,0,0,1,.067-.2c.046-.063.05-.062.134.017l.087.082v-.091a1.421,1.421,0,0,1,.144-.56.255.255,0,0,1,.111.07l.076.069.021-.133a2.461,2.461,0,0,1,.209-.559c.036-.063.039-.063.117.01l.079.074.02-.111a.9.9,0,0,1,.173-.386.06.06,0,0,1,.069.018c.072.071.109.036.17-.162a1.342,1.342,0,0,1,.115-.274l.053-.075.059.08.061.08.024-.1a1.315,1.315,0,0,1,.229-.45c.029-.024.067-.034.085-.023s.073-.066.123-.17a1.085,1.085,0,0,1,.164-.26,6.5,6.5,0,0,0,.4-.563c.292-.44.461-.657.461-.59,0,.013-.092.224-.2.469a6.024,6.024,0,0,0-.268.674c-.036.127-.074.261-.086.3s-.01.061.015.045c.068-.042.04.112-.061.336-.093.2-.095.218-.034.218a.058.058,0,0,1,.064.052,1.059,1.059,0,0,1-.22.415l-.089.105h.087c.059,0,.088.018.088.056a.915.915,0,0,1-.25.359c-.058.052-.061.065-.019.092a.209.209,0,0,0,.088.031c.069,0,.009.124-.16.335a2.653,2.653,0,0,0-.166.217.234.234,0,0,0,.1.032c.136.028.109.09-.157.349l-.213.209.117.023c.077.014.118.04.118.077a1.6,1.6,0,0,1-.3.346l-.3.293.128.039c.07.021.128.051.128.066a1.62,1.62,0,0,1-.4.361l-.139.092.086.045c.048.025.087.064.088.086a1.669,1.669,0,0,1-.463.418c-.136.074-.137.1-.009.128.1.021.1.026.054.112a1.061,1.061,0,0,1-.252.239.9.9,0,0,0-.2.176c0,.015.038.037.084.048s.084.034.084.05c0,.061-.228.285-.41.4-.144.093-.182.133-.154.162a.145.145,0,0,0,.082.039c.118,0-.009.146-.31.352l-.252.177c-.009.008.009.028.04.045.049.028.051.043.012.117a2.836,2.836,0,0,1-.592.493c-.066.047-.072.058-.026.059s.059.007.059.015a.618.618,0,0,1-.211.282c-.365.281-.425.338-.465.437a1.37,1.37,0,0,1-.282.324,5.291,5.291,0,0,0-.8.834,1.454,1.454,0,0,0-.133.217.519.519,0,0,1-.075.128l-.075.105.118-.083a5.108,5.108,0,0,0,.748-.716c.074-.1.19-.232.257-.3.118-.125.12-.125.16-.053s.039.073.09-.025a3.59,3.59,0,0,1,.491-.627.259.259,0,0,1,.063.085c.023.04.041.055.042.034a2.906,2.906,0,0,1,.444-.584c.017,0,.045.042.065.091l.034.09.069-.113a2.7,2.7,0,0,1,.44-.506c.013,0,.047.042.075.092s.051.075.052.052a1.99,1.99,0,0,1,.453-.481c.023,0,.061.042.085.093.042.089.044.09.071.02a2.412,2.412,0,0,1,.476-.518c.018,0,.047.046.067.1l.035.1.107-.131a3.334,3.334,0,0,1,.5-.476c.01,0,.035.052.055.115l.039.115.158-.158a2.891,2.891,0,0,1,.268-.235l.109-.077.037.095c.022.054.044.077.053.053a1.844,1.844,0,0,1,.414-.344c.015,0,.035.032.045.071.019.07.021.069.147-.029a1.327,1.327,0,0,1,.362-.212c.01,0,.019.025.019.053s.011.048.025.042.122-.061.239-.123a.65.65,0,0,1,.263-.093.14.14,0,0,0,.106-.015c.084-.047.768-.318.974-.385a.82.82,0,0,1,.251-.046c.055.008-.013.063-.278.217m6.629,17.079-1.241-.98-1.809,1.247.492,1.5-1.22.826-1.783-6.342,1.351-.97,5.431,3.864Zm3.972-3.744-5.045-3.7.773-1.066,4.161,2.955,1.537-1.97.888.632Zm1.941-12.156a.913.913,0,0,1-.834-.975,1,1,0,0,1,.472-.878.835.835,0,1,1,.725,0,1,1,0,0,1,.472.878.914.914,0,0,1-.835.975" transform="translate(-351.536 -91.006)" fill="#231f20"/>
    <path id="Path_794" data-name="Path 794" d="M377.419,103l.442,3.256,1.648-.844Z" transform="translate(-358.537 -94.25)" fill="#231f20"/>
    <path id="Path_795" data-name="Path 795" d="M395.835,155.819a3.228,3.228,0,0,0-1.226.287q.178.745.356,1.492a3.139,3.139,0,0,0,1.419-.466c.6-.507.225-1.271-.549-1.312" transform="translate(-363.186 -108.536)" fill="#231f20"/>
    <path id="Path_796" data-name="Path 796" d="M395.61,153.66a.646.646,0,0,0-.552-1.018,3.544,3.544,0,0,0-1.227.217l.4,1.307c.553-.088,1.145-.14,1.377-.5" transform="translate(-362.976 -107.675)" fill="#231f20"/>
    <path id="Path_797" data-name="Path 797" d="M418.476,129.432c-.174,0-.316.2-.316.455s.142.454.316.454.317-.2.317-.454-.141-.455-.317-.455" transform="translate(-369.556 -101.399)" fill="#231f20"/>
    <path id="Path_798" data-name="Path 798" d="M382.279,152.934a1.515,1.515,0,0,0-.652.773,4.992,4.992,0,0,0-.3,1.64,1.6,1.6,0,0,0,.287.957,1.658,1.658,0,0,0,2.107.322,1.642,1.642,0,0,0,.561-.792,5.739,5.739,0,0,0,.276-1.521,1.775,1.775,0,0,0-.12-.71,1.6,1.6,0,0,0-2.163-.669" transform="translate(-359.595 -107.707)" fill="#231f20"/>
    <path id="Path_799" data-name="Path 799" d="M418.495,128.127c.158,0,.286-.2.286-.455s-.128-.454-.286-.454-.287.2-.287.454.128.455.287.455" transform="translate(-369.569 -100.8)" fill="#231f20"/>
    <path id="Path_800" data-name="Path 800" d="M410.051,127.318a.264.264,0,0,0-.263.264v1.849a.264.264,0,0,0,.528,0v-1.849a.265.265,0,0,0-.265-.264" transform="translate(-367.292 -100.827)" fill="#231f20"/>
    <path id="Path_801" data-name="Path 801" d="M405.492,151.136l1.307-.944-2.15-1.669Z" transform="translate(-365.902 -106.563)" fill="#231f20"/>
  </g>
</svg>
