<svg xmlns="http://www.w3.org/2000/svg" width="59.664" height="68.5" viewBox="0 0 59.664 68.5">
  <g id="Group_1382" data-name="Group 1382" opacity="1">
    <path id="Path_802" data-name="Path 802" d="M1539.439,136.26l-13.764-6.212.917,10.3,4.35-3.107,2.437,3.31-11.082,7.889-2.465-26.66,24.386,11.087Z" transform="translate(-1492.224 -96.844)" fill="#231f20"/>
    <path id="Path_803" data-name="Path 803" d="M1540.1,98.957,1530.013,110.2l10.093,2.243-1.644-5.086,3.892-1.32,4.163,12.95-26.155-5.722,17.95-19.885Z" transform="translate(-1492.368 -89.162)" fill="#231f20"/>
    <path id="Path_804" data-name="Path 804" d="M1506.734,87.632l7.55,13.078,5.266-8.9L1514.2,91.8l-.046-4.11,13.6.063-13.56,23.085L1500.873,87.6Z" transform="translate(-1487.097 -87.599)" fill="#231f20"/>
    <path id="Path_805" data-name="Path 805" d="M1483.842,113.158l14.776-3.112-6.82-7.77-1.676,5.076-3.921-1.233,4.287-12.909,17.729,20.063-26.228,5.448Z" transform="translate(-1481.989 -89.117)" fill="#231f20"/>
    <path id="Path_806" data-name="Path 806" d="M1501.313,145l1.745-15-9.535,4,4.28,3.2-2.415,3.326-10.878-8.167,24.656-10.434-3.169,26.6Z" transform="translate(-1482.671 -96.885)" fill="#231f20"/>
    <rect id="Rectangle_292" data-name="Rectangle 292" width="1.55" height="11.9" transform="translate(15.674 56.599)" fill="#231f20"/>
    <path id="Path_807" data-name="Path 807" d="M1533.047,175.674V165.183h-1.55v11.9h4.5v-1.409Z" transform="translate(-1495.38 -108.584)" fill="#231f20"/>
    <path id="Path_808" data-name="Path 808" d="M1540.816,177.121h5.886v-1.413H1543.4l3.951-6.879,4.792,8.292h1.648l-6.431-11.282Z" transform="translate(-1497.9 -108.761)" fill="#231f20"/>
    <path id="Path_809" data-name="Path 809" d="M1495.171,165.839h-5.886v1.413h3.307l-3.952,6.879-4.791-8.292H1482.2l6.431,11.282Z" transform="translate(-1482.046 -108.761)" fill="#231f20"/>
    <path id="Path_810" data-name="Path 810" d="M1560.7,179.552h-.42V179.4h1.021v.151h-.421v1.227h-.18Z" transform="translate(-1503.166 -112.429)" fill="#231f20"/>
    <path id="Path_811" data-name="Path 811" d="M1563.043,180.174c-.01-.193-.023-.423-.021-.6h-.007c-.047.162-.1.333-.174.524l-.244.668h-.135l-.223-.656c-.066-.195-.121-.373-.16-.536h0c0,.172-.014.4-.026.609l-.037.592h-.169l.1-1.379h.227l.235.667c.057.17.1.321.139.465h.006c.035-.139.084-.291.145-.465l.246-.667h.227l.086,1.379h-.174Z" transform="translate(-1503.588 -112.429)" fill="#231f20"/>
    <path id="Path_812" data-name="Path 812" d="M1516.2,164.58a6.1,6.1,0,1,0,6.332,6.094,6.217,6.217,0,0,0-6.332-6.094m0,10.849a4.756,4.756,0,1,1,4.607-4.754,4.682,4.682,0,0,1-4.607,4.754" transform="translate(-1489.53 -108.421)" fill="#231f20"/>
  </g>
</svg>
